<svg width="967" height="762" viewBox="0 0 967 762" fill="none" xmlns="http://www.w3.org/2000/svg">
<path fill-rule="evenodd" clip-rule="evenodd" d="M853.316 164.986C852.692 164.539 851.237 164.381 850.556 164.247C847.726 163.692 844.816 163.45 841.929 163.45C833.048 163.464 824.017 164.333 815.287 165.837C809.732 166.792 803.034 170.007 797.512 168.26C787.899 165.219 778.184 165.369 769.063 169.711C760.724 173.681 754.394 181.221 750.7 189.368C750.142 190.599 747.881 195.126 747.241 198.178C746.967 198.801 746.704 199.429 746.467 200.066C745.795 201.877 745.191 203.719 744.631 205.565C744.391 206.352 743.789 208.09 744.504 208.427C743.362 210.53 742.348 212.696 741.505 214.932C739.051 221.438 736.367 228.575 735.504 235.469C735.185 238.023 735.173 240.591 735.469 243.148C735.616 244.413 735.556 246.955 736.415 247.917C738.241 249.957 739.178 247.101 738.972 245.74C737.402 235.374 740.435 225.638 744.03 215.893C746.356 209.593 750.176 203.827 754.456 198.607C757.92 194.38 761.635 191.052 766.382 188.251C772.189 184.824 778.396 182.055 784.546 179.276C788.591 177.448 792.641 175.669 796.799 174.094C797.724 173.743 799.178 172.844 800.203 172.84C802.375 172.834 805.447 174.428 807.538 175.021C814.421 176.973 821.396 179.472 828.521 180.469C833.083 181.109 837.367 180.388 841.629 178.872C842.067 178.718 842.795 178.32 843.696 177.751C846.872 176.535 849.863 175.006 852.473 172.798C853.986 171.527 855.348 169.883 856.595 168.379C856.965 167.93 857.127 167.414 857.138 166.924C857.415 166.778 857.6 166.605 857.646 166.405C857.958 164.925 855.129 164.898 853.316 164.986Z" fill="#89C5CC"/>
<path fill-rule="evenodd" clip-rule="evenodd" d="M131.587 288.387C129.844 289.794 128.135 291.231 126.467 292.725C125.196 293.866 122.946 295.23 122.49 296.957C122.015 298.75 123.513 300.429 124.696 301.514C130.952 307.251 137.996 311.13 146.664 311.774C160.012 312.768 171.629 309.37 183.21 302.686C191.344 297.989 196.733 291.044 197.91 281.665C207.598 285.677 216.967 291.209 224.93 297.998C228.858 301.348 232.242 305.06 235.372 309.173C237.376 311.809 239.315 314.486 241.115 317.267C241.896 318.476 242.692 320.618 243.983 321.313C245.5 322.131 247.332 320.849 247.257 319.17C247.194 317.771 245.68 316.149 244.971 315.006C243.795 313.108 242.601 311.223 241.343 309.377C239.308 306.388 237.206 303.442 234.912 300.645C229.757 294.361 223.198 289.17 216.4 284.743C203.357 276.25 189.043 270.9 173.173 270.447C163.414 270.168 155.206 273.491 146.861 278.453C141.665 281.544 136.302 284.582 131.587 288.387Z" fill="#DDE3E9"/>
<path fill-rule="evenodd" clip-rule="evenodd" d="M258.169 247.312C248 236.873 237.796 226.565 226.434 217.374C219.738 211.957 212.682 207.033 205.772 201.897C206.568 202.593 207.35 203.309 208.114 204.043C205.956 202.584 203.133 201.758 200.846 200.407C198.295 198.9 195.856 197.177 193.464 195.439C188.795 192.048 184.197 188.593 179.397 185.379C174.05 181.798 168.509 178.49 163.071 175.045C158.455 172.12 153.784 168.919 148.846 166.529C146.155 165.226 143.458 163.682 140.756 162.322C139.852 161.867 130.675 156.093 130.699 156.075C131.206 155.694 135.824 157.857 136.537 158.147C138.623 158.997 140.619 160.013 142.623 161.025C141.523 158.861 140.652 156.588 140.178 154.193C140.031 153.456 138.858 148.077 139.458 147.625C139.757 147.401 142.685 157.023 142.835 157.948C142.957 158.699 142.939 159.782 143.186 160.493C143.584 161.642 143.565 161.295 144.442 161.942C146.051 163.129 148.186 163.87 149.927 164.862C150.867 165.385 153.774 167.456 155.524 168.046C160.822 170.612 166.192 174.557 171.226 177.833C169.904 175.358 168.899 172.77 168.166 170.06C167.992 169.415 166.11 163.64 166.567 163.297C167.081 162.911 170.665 171.732 170.878 172.567C171.272 174.118 171.354 175.845 171.848 177.354C172.39 179.01 174.082 179.597 175.606 180.563C181.215 184.115 186.632 187.889 191.959 191.838C197.771 181.534 191.069 169.094 185.422 160.449C181.35 154.22 175.87 148.878 170.083 144.215C162.36 137.992 153.524 133.02 144.699 128.472C134.416 123.174 123.302 119.891 111.746 118.374C105.703 117.581 99.5212 117.602 93.4167 117.857C90.4349 117.981 87.572 118.375 84.7149 119.344C83.4261 119.781 82.1811 120.333 80.9686 120.95C80.047 121.418 77.817 121.914 77.2881 122.613C72.9251 128.272 70.6939 133.911 71.0346 141.022C71.3568 147.753 73.4898 154.488 76.3838 160.493C79.6081 167.18 83.7541 173.248 89.1772 178.34C93.3139 182.226 97.939 185.609 102.534 188.946C118.876 200.817 139.596 211.142 160.762 208.49C167.613 207.631 174.13 205.243 180.22 201.998C181.655 201.232 183.081 200.459 184.436 199.557C185.349 198.948 187.791 196.205 188.709 196.106C189.969 195.969 192.68 198.522 193.862 199.299C202.839 205.205 211.582 211.432 220.14 217.91C229.247 224.804 237.906 232.165 246.311 239.872C249.886 243.152 253.438 246.437 256.908 249.826C257.717 250.614 259.693 253.517 261.158 253.649C262.084 253.732 262.709 252.944 262.577 252.088C262.348 250.604 259.211 248.38 258.169 247.312Z" fill="#C1DEE2"/>
<path fill-rule="evenodd" clip-rule="evenodd" d="M842.633 206.799C838.695 205.941 834.342 206.007 830.334 206.077C808.82 206.37 787.682 216.524 773.931 232.75C762.223 246.562 759.003 263.736 756.69 281.096C756.461 282.819 756.363 284.532 756.234 286.26C756.206 286.631 756.164 286.961 756.119 287.273C755.21 288.083 754.732 289.028 755.272 290.066C753.268 294.437 751.573 298.918 750.118 303.541C745.837 317.146 741.483 331.011 744.164 345.317C744.791 337.444 746.11 329.393 747.687 321.649C747.777 321.205 747.875 320.764 747.977 320.324C747.988 320.278 747.997 320.231 748.008 320.185C748.565 317.814 749.291 315.514 750.173 313.25C750.182 313.225 750.192 313.2 750.201 313.176C750.317 312.878 750.441 312.581 750.563 312.285C750.816 311.672 751.076 311.059 751.351 310.451C751.445 310.242 751.533 310.033 751.62 309.822C752.904 306.684 753.446 303.148 754.597 299.902C754.872 299.164 755.16 298.429 755.461 297.697C755.48 297.654 755.497 297.612 755.515 297.569C756.331 295.6 757.23 293.655 758.183 291.731C758.7 291.343 758.976 290.382 759.423 289.508C759.515 289.336 760.236 288.188 760.451 287.526C761.012 286.445 761.57 285.364 762.135 284.285C762.119 284.292 762.101 284.297 762.084 284.304C762.649 283.267 763.216 282.236 763.778 281.208C763.902 280.982 764.027 280.757 764.151 280.53C764.353 280.17 764.555 279.809 764.756 279.45C766.641 276.088 768.64 272.794 770.715 269.54C771.457 268.378 773.226 266.713 773.566 265.41C773.578 265.36 773.581 265.315 773.589 265.269C778.093 258.964 783.277 253.149 789.496 248.541C788.744 249.351 787.145 252.099 786.724 252.643C785.431 254.309 784.027 255.859 782.62 257.429C780.096 260.241 777.634 263.142 775.446 266.21C771.443 271.82 767.991 277.724 764.726 283.747C764.696 283.782 764.662 283.815 764.633 283.852C762.992 285.867 761.959 288.913 760.779 291.219C765.452 289.062 770.62 287.656 775.415 285.741C780.198 283.831 784.85 281.704 789.342 279.207C795.311 275.888 801.505 272.141 807.145 267.901C813.612 263.904 819.04 258.403 823.833 252.631C829.514 245.8 834.711 238.911 837.922 230.618C839.504 226.543 840.74 222.293 841.479 217.994C841.513 217.808 841.559 217.604 841.594 217.393C842.356 215.908 843.026 214.39 843.592 212.837C844.493 210.374 846.606 207.665 842.633 206.799Z" fill="#69A1AC"/>
<path fill-rule="evenodd" clip-rule="evenodd" d="M93.4987 219.867C91.9373 218.317 90.1843 216.917 88.1263 215.919C87.6055 215.667 83.7298 213.976 83.4769 214.348C82.8891 215.211 93.0298 219.372 93.4987 219.867ZM111.876 209.506C111.863 209.572 113.207 211.665 113.573 212.308C114.352 213.677 115.071 215.072 115.748 216.469C114.747 214 113.718 211.711 111.876 209.506ZM17.8863 226.544C16.5917 226.926 15.0361 225.419 16.7141 225.047C18.0734 224.749 18.0064 224.678 18.6162 223.675C19.1116 222.859 19.4176 221.864 19.8518 221.009C20.7734 219.192 21.8197 217.461 23.1039 215.839C25.8547 212.362 29.2073 209.365 32.9674 206.84C39.5293 202.433 46.8856 198.407 54.6901 196.383C67.0989 193.166 81.2227 192.967 93.6511 195.198C101.348 196.579 108.383 198.98 113.494 204.668C116.048 207.51 118.054 210.842 118.931 214.509C119.159 215.466 119.117 216.532 119.403 217.472C119.843 218.914 119.649 218.529 121.488 218.81C123.496 219.116 125.502 219.43 127.507 219.748C132.758 220.582 138.04 221.467 143.156 222.819C144.841 223.265 146.488 223.808 148.096 224.441C149.312 224.918 154.158 226.418 154.747 227.869C155.728 230.283 152.443 229.188 151.423 228.663C150.53 228.202 149.612 227.772 148.681 227.378C146.336 226.382 143.894 225.612 141.396 224.998C138.697 224.335 135.943 223.842 133.199 223.345C130.641 222.884 128.072 222.464 125.501 222.063C124.072 221.84 122.642 221.623 121.213 221.406C120.724 221.332 119.864 220.944 119.928 221.527C116.922 220.995 113.672 221.072 110.61 220.925C106.86 220.746 103.095 220.599 99.3329 220.706C96.6191 220.784 93.9029 220.948 91.2028 221.282C89.6253 221.477 88.0732 221.764 86.5245 222.127C85.6746 222.326 82.3221 222.747 81.859 223.427C82.0576 223.135 85.7577 223.419 86.2289 223.402C88.1125 223.337 89.9822 223.166 91.8588 222.974C95.3418 222.617 98.8271 222.43 102.321 222.457C102.308 223.02 99.9208 224.022 99.3376 224.395C98.0314 225.232 96.7807 226.145 95.6132 227.146C93.5576 228.91 91.0954 231.093 89.6727 233.182C90.0919 232.567 92.1602 231.765 92.8935 231.296C94.0692 230.542 95.2205 229.737 96.3107 228.877C97.3166 228.084 98.2555 227.227 99.1782 226.351C100.101 225.475 101.354 223.654 102.567 223.07C102.64 223.035 103.169 223.418 103.47 223.288C103.772 223.157 104.149 222.499 104.226 222.473C105.355 222.074 107.499 222.571 108.686 222.621C111.765 222.752 114.84 222.922 117.916 223.077C118.868 223.124 119.679 222.926 120.038 223.571C120.422 224.259 119.719 226.068 119.52 226.817C118.777 229.6 117.461 232.097 115.386 234.253C111.504 238.292 106.715 240.984 101.305 242.786C80.5863 249.685 58.5426 252.448 37.8293 245.271C29.2546 242.3 16.3399 236.99 17.8863 226.544Z" fill="#89C5CC"/>
<mask id="mask0_32_350" style="mask-type:luminance" maskUnits="userSpaceOnUse" x="0" y="355" width="967" height="315">
<path d="M967 355.636H0V669.347H967V355.636Z" fill="white"/>
</mask>
<g mask="url(#mask0_32_350)">
<g opacity="0.6">
<path fill-rule="evenodd" clip-rule="evenodd" d="M966.179 551.574C980.28 639.15 638.569 696.273 344.456 656.409C50.3421 616.544 -84.5832 460.868 55.763 377.917C196.109 294.968 952.09 463.998 966.179 551.574Z" fill="#DDE3E9"/>
</g>
</g>
<path d="M389.957 27.6254H224.814C219.712 27.6254 215.575 31.7481 215.575 36.8338V366.036C215.575 371.122 219.712 375.245 224.814 375.245H389.957C395.059 375.245 399.196 371.122 399.196 366.036V36.8338C399.196 31.7481 395.059 27.6254 389.957 27.6254Z" fill="#F2F2F2"/>
<path fill-rule="evenodd" clip-rule="evenodd" d="M306.808 353.375C316.375 353.375 324.131 345.644 324.131 336.109C324.131 326.573 316.375 318.843 306.808 318.843C297.241 318.843 289.485 326.573 289.485 336.109C289.485 345.644 297.241 353.375 306.808 353.375Z" fill="white"/>
<path fill-rule="evenodd" clip-rule="evenodd" d="M291.795 50.6465C293.071 50.6465 294.105 49.6163 294.105 48.3444C294.105 47.0725 293.071 46.0423 291.795 46.0423C290.519 46.0423 289.485 47.0725 289.485 48.3444C289.485 49.6163 290.519 50.6465 291.795 50.6465Z" fill="white"/>
<path d="M321.821 46.0423H302.189C300.913 46.0423 299.879 47.073 299.879 48.3444C299.879 49.6158 300.913 50.6465 302.189 50.6465H321.821C323.097 50.6465 324.131 49.6158 324.131 48.3444C324.131 47.073 323.097 46.0423 321.821 46.0423Z" fill="white"/>
<path d="M378.408 59.855H236.362C233.811 59.855 231.743 61.9164 231.743 64.4592V117.408C231.743 119.951 233.811 122.012 236.362 122.012H378.408C380.96 122.012 383.028 119.951 383.028 117.408V64.4592C383.028 61.9164 380.96 59.855 378.408 59.855Z" fill="white"/>
<mask id="mask1_32_350" style="mask-type:luminance" maskUnits="userSpaceOnUse" x="276" y="78" width="86" height="26">
<path d="M361.086 78.5021H276.782V103.365H361.086V78.5021Z" fill="white"/>
</mask>
<g mask="url(#mask1_32_350)">
<path d="M357.621 78.5021H280.247C278.333 78.5021 276.782 80.0482 276.782 81.9553V84.3725C276.782 86.2797 278.333 87.8257 280.247 87.8257H357.621C359.535 87.8257 361.086 86.2797 361.086 84.3725V81.9553C361.086 80.0482 359.535 78.5021 357.621 78.5021Z" fill="#DDE3E9"/>
<path d="M329.905 94.0414H280.247C278.333 94.0414 276.782 95.5874 276.782 97.4946V99.9118C276.782 101.819 278.333 103.365 280.247 103.365H329.905C331.818 103.365 333.369 101.819 333.369 99.9118V97.4946C333.369 95.5874 331.818 94.0414 329.905 94.0414Z" fill="#DDE3E9"/>
</g>
<path fill-rule="evenodd" clip-rule="evenodd" d="M255.995 104.746C263.648 104.746 269.853 98.5616 269.853 90.9335C269.853 83.3055 263.648 77.1208 255.995 77.1208C248.342 77.1208 242.137 83.3055 242.137 90.9335C242.137 98.5616 248.342 104.746 255.995 104.746Z" fill="#C5CFD6"/>
<path d="M378.408 131.221H236.362C233.811 131.221 231.743 133.282 231.743 135.825V174.961C231.743 177.504 233.811 179.565 236.362 179.565H378.408C380.96 179.565 383.028 177.504 383.028 174.961V135.825C383.028 133.282 380.96 131.221 378.408 131.221Z" fill="white"/>
<mask id="mask2_32_350" style="mask-type:luminance" maskUnits="userSpaceOnUse" x="276" y="145" width="86" height="21">
<path d="M361.086 145.724H276.782V165.062H361.086V145.724Z" fill="white"/>
</mask>
<g mask="url(#mask2_32_350)">
<path d="M357.621 145.724H280.247C278.333 145.724 276.782 147.27 276.782 149.177V149.522C276.782 151.429 278.333 152.975 280.247 152.975H357.621C359.535 152.975 361.086 151.429 361.086 149.522V149.177C361.086 147.27 359.535 145.724 357.621 145.724Z" fill="#DDE3E9"/>
<path d="M329.905 157.81H280.247C278.333 157.81 276.782 159.356 276.782 161.263V161.608C276.782 163.516 278.333 165.062 280.247 165.062H329.905C331.818 165.062 333.369 163.516 333.369 161.608V161.263C333.369 159.356 331.818 157.81 329.905 157.81Z" fill="#DDE3E9"/>
</g>
<path fill-rule="evenodd" clip-rule="evenodd" d="M255.995 169.205C263.648 169.205 269.853 163.021 269.853 155.393C269.853 147.765 263.648 141.58 255.995 141.58C248.342 141.58 242.137 147.765 242.137 155.393C242.137 163.021 248.342 169.205 255.995 169.205Z" fill="#C5CFD6"/>
<path d="M378.408 188.773H236.362C233.811 188.773 231.743 190.835 231.743 193.378V232.514C231.743 235.056 233.811 237.118 236.362 237.118H378.408C380.96 237.118 383.028 235.056 383.028 232.514V193.378C383.028 190.835 380.96 188.773 378.408 188.773Z" fill="white"/>
<mask id="mask3_32_350" style="mask-type:luminance" maskUnits="userSpaceOnUse" x="276" y="203" width="86" height="20">
<path d="M361.086 203.277H276.782V222.614H361.086V203.277Z" fill="white"/>
</mask>
<g mask="url(#mask3_32_350)">
<path d="M357.621 203.277H280.247C278.333 203.277 276.782 204.823 276.782 206.73V207.075C276.782 208.982 278.333 210.528 280.247 210.528H357.621C359.535 210.528 361.086 208.982 361.086 207.075V206.73C361.086 204.823 359.535 203.277 357.621 203.277Z" fill="#DDE3E9"/>
<path d="M329.905 215.363H280.247C278.333 215.363 276.782 216.909 276.782 218.816V219.161C276.782 221.068 278.333 222.614 280.247 222.614H329.905C331.818 222.614 333.369 221.068 333.369 219.161V218.816C333.369 216.909 331.818 215.363 329.905 215.363Z" fill="#DDE3E9"/>
</g>
<path fill-rule="evenodd" clip-rule="evenodd" d="M255.995 226.758C263.648 226.758 269.853 220.574 269.853 212.946C269.853 205.318 263.648 199.133 255.995 199.133C248.342 199.133 242.137 205.318 242.137 212.946C242.137 220.574 248.342 226.758 255.995 226.758Z" fill="#AFB9C5"/>
<path d="M378.408 246.326H236.362C233.811 246.326 231.743 248.388 231.743 250.931V290.066C231.743 292.609 233.811 294.671 236.362 294.671H378.408C380.96 294.671 383.028 292.609 383.028 290.066V250.931C383.028 248.388 380.96 246.326 378.408 246.326Z" fill="white"/>
<mask id="mask4_32_350" style="mask-type:luminance" maskUnits="userSpaceOnUse" x="276" y="260" width="86" height="21">
<path d="M361.086 260.83H276.782V280.167H361.086V260.83Z" fill="white"/>
</mask>
<g mask="url(#mask4_32_350)">
<path d="M357.621 260.83H280.247C278.333 260.83 276.782 262.376 276.782 264.283V264.628C276.782 266.535 278.333 268.081 280.247 268.081H357.621C359.535 268.081 361.086 266.535 361.086 264.628V264.283C361.086 262.376 359.535 260.83 357.621 260.83Z" fill="#DDE3E9"/>
<path d="M329.905 272.916H280.247C278.333 272.916 276.782 274.462 276.782 276.369V276.714C276.782 278.621 278.333 280.167 280.247 280.167H329.905C331.818 280.167 333.369 278.621 333.369 276.714V276.369C333.369 274.462 331.818 272.916 329.905 272.916Z" fill="#DDE3E9"/>
</g>
<path fill-rule="evenodd" clip-rule="evenodd" d="M255.995 284.311C263.648 284.311 269.853 278.127 269.853 270.498C269.853 262.87 263.648 256.686 255.995 256.686C248.342 256.686 242.137 262.87 242.137 270.498C242.137 278.127 248.342 284.311 255.995 284.311Z" fill="#C5CFD6"/>
<path fill-rule="evenodd" clip-rule="evenodd" d="M250.382 308.483C248.852 308.483 247.327 308.514 245.799 308.593C244.633 308.654 242.854 308.413 241.869 309.137C240.844 309.889 240.915 311.427 241.075 312.513C241.921 318.259 243.984 323.354 248.302 327.425C254.951 333.693 262.572 336.878 271.59 338.296C277.925 339.293 283.773 337.909 288.437 333.419C291.845 339.722 294.429 346.697 295.726 353.737C296.366 357.211 296.561 360.644 296.449 364.181C296.376 366.446 296.252 368.707 296.008 370.962C295.902 371.941 295.4 373.424 295.785 374.35C296.237 375.437 297.76 375.543 298.443 374.615C299.013 373.844 298.909 372.328 299.025 371.415C299.219 369.898 299.399 368.38 299.527 366.856C299.736 364.389 299.889 361.915 299.879 359.438C299.852 353.875 298.611 348.29 296.913 343.009C293.657 332.877 288.373 323.872 280.155 316.807C275.102 312.463 269.318 310.704 262.758 309.759C258.672 309.171 254.52 308.483 250.382 308.483Z" fill="#89C5CC"/>
<path fill-rule="evenodd" clip-rule="evenodd" d="M273.977 348.77C257.464 348.77 246.343 362.035 241.085 375.823C239.102 381.018 238.638 386.725 237.873 392.181C237.628 393.933 237.719 396.601 237.006 398.161C236.747 398.727 236.153 398.93 236.438 399.701C236.61 400.167 236.946 400.454 237.453 400.546C238.491 400.737 239.96 399.609 240.85 399.165C248.237 395.472 253.089 389.763 257.048 382.778C259.503 378.449 261.993 373.954 263.451 369.202C264.341 366.298 264.859 363.24 265.164 360.228C265.284 359.041 265.4 357.827 265.393 356.634C265.386 355.45 264.833 354.824 264.436 353.794C269.945 351.715 276.165 351.148 281.747 353.302C286.909 355.295 291.197 359.145 293.598 363.983C294.221 365.24 294.703 366.566 295.053 367.919C295.283 368.806 295.293 369.954 295.719 370.756C296.749 372.699 298.918 371.4 298.71 369.592C298.129 364.549 295.235 359.486 291.535 355.979C286.869 351.557 280.545 348.77 273.977 348.77Z" fill="#89C5CC"/>
<path d="M466.177 57.5529H301.034C295.931 57.5529 291.795 61.6756 291.795 66.7613V395.964C291.795 401.049 295.931 405.172 301.034 405.172H466.177C471.279 405.172 475.416 401.049 475.416 395.964V66.7613C475.416 61.6756 471.279 57.5529 466.177 57.5529Z" fill="#DDE3E9"/>
<path fill-rule="evenodd" clip-rule="evenodd" d="M383.028 383.302C392.595 383.302 400.351 375.572 400.351 366.036C400.351 356.501 392.595 348.77 383.028 348.77C373.461 348.77 365.705 356.501 365.705 366.036C365.705 375.572 373.461 383.302 383.028 383.302Z" fill="white"/>
<path fill-rule="evenodd" clip-rule="evenodd" d="M368.015 80.574C369.291 80.574 370.325 79.5438 370.325 78.2719C370.325 77 369.291 75.9698 368.015 75.9698C366.739 75.9698 365.705 77 365.705 78.2719C365.705 79.5438 366.739 80.574 368.015 80.574Z" fill="white"/>
<path d="M398.041 75.9698H378.408C377.133 75.9698 376.099 77.0005 376.099 78.2719C376.099 79.5433 377.133 80.574 378.408 80.574H398.041C399.316 80.574 400.351 79.5433 400.351 78.2719C400.351 77.0005 399.316 75.9698 398.041 75.9698Z" fill="white"/>
<path d="M454.628 89.7825H312.582C310.031 89.7825 307.963 91.8439 307.963 94.3867V147.335C307.963 149.878 310.031 151.94 312.582 151.94H454.628C457.18 151.94 459.248 149.878 459.248 147.335V94.3867C459.248 91.8439 457.18 89.7825 454.628 89.7825Z" fill="white"/>
<mask id="mask5_32_350" style="mask-type:luminance" maskUnits="userSpaceOnUse" x="318" y="108" width="85" height="26">
<path d="M402.66 108.43H318.356V133.292H402.66V108.43Z" fill="white"/>
</mask>
<g mask="url(#mask5_32_350)">
<path d="M399.196 108.43H321.821C319.908 108.43 318.356 109.976 318.356 111.883V114.3C318.356 116.207 319.908 117.753 321.821 117.753H399.196C401.109 117.753 402.66 116.207 402.66 114.3V111.883C402.66 109.976 401.109 108.43 399.196 108.43Z" fill="#DDE3E9"/>
<path d="M371.479 123.969H321.821C319.908 123.969 318.356 125.515 318.356 127.422V129.839C318.356 131.746 319.908 133.292 321.821 133.292H371.479C373.393 133.292 374.944 131.746 374.944 129.839V127.422C374.944 125.515 373.393 123.969 371.479 123.969Z" fill="#DDE3E9"/>
</g>
<path fill-rule="evenodd" clip-rule="evenodd" d="M443.08 128.918C447.545 128.918 451.164 125.311 451.164 120.861C451.164 116.411 447.545 112.804 443.08 112.804C438.615 112.804 434.996 116.411 434.996 120.861C434.996 125.311 438.615 128.918 443.08 128.918Z" fill="#DDE3E9"/>
<path fill-rule="evenodd" clip-rule="evenodd" d="M443.08 124.314C444.993 124.314 446.544 122.768 446.544 120.861C446.544 118.954 444.993 117.408 443.08 117.408C441.166 117.408 439.615 118.954 439.615 120.861C439.615 122.768 441.166 124.314 443.08 124.314Z" fill="#F2F2F2"/>
<path d="M454.628 161.148H312.582C310.031 161.148 307.963 163.209 307.963 165.752V204.888C307.963 207.431 310.031 209.492 312.582 209.492H454.628C457.18 209.492 459.248 207.431 459.248 204.888V165.752C459.248 163.209 457.18 161.148 454.628 161.148Z" fill="white"/>
<mask id="mask6_32_350" style="mask-type:luminance" maskUnits="userSpaceOnUse" x="353" y="175" width="85" height="20">
<path d="M437.306 175.651H353.002V194.989H437.306V175.651Z" fill="white"/>
</mask>
<g mask="url(#mask6_32_350)">
<path d="M433.841 175.651H356.466C354.553 175.651 353.002 177.197 353.002 179.104V179.45C353.002 181.357 354.553 182.903 356.466 182.903H433.841C435.754 182.903 437.306 181.357 437.306 179.45V179.104C437.306 177.197 435.754 175.651 433.841 175.651Z" fill="#DDE3E9"/>
<path d="M406.125 187.737H356.466C354.553 187.737 353.002 189.283 353.002 191.191V191.536C353.002 193.443 354.553 194.989 356.466 194.989H406.125C408.038 194.989 409.589 193.443 409.589 191.536V191.191C409.589 189.283 408.038 187.737 406.125 187.737Z" fill="#DDE3E9"/>
</g>
<path fill-rule="evenodd" clip-rule="evenodd" d="M332.215 199.133C339.868 199.133 346.073 192.948 346.073 185.32C346.073 177.692 339.868 171.508 332.215 171.508C324.561 171.508 318.356 177.692 318.356 185.32C318.356 192.948 324.561 199.133 332.215 199.133Z" fill="#C5CFD6"/>
<path d="M454.628 218.701H312.582C310.031 218.701 307.963 220.762 307.963 223.305V262.441C307.963 264.984 310.031 267.045 312.582 267.045H454.628C457.18 267.045 459.248 264.984 459.248 262.441V223.305C459.248 220.762 457.18 218.701 454.628 218.701Z" fill="white"/>
<mask id="mask7_32_350" style="mask-type:luminance" maskUnits="userSpaceOnUse" x="318" y="233" width="85" height="20">
<path d="M402.66 233.204H318.356V252.542H402.66V233.204Z" fill="white"/>
</mask>
<g mask="url(#mask7_32_350)">
<path d="M399.196 233.204H321.821C319.908 233.204 318.356 234.75 318.356 236.657V237.003C318.356 238.91 319.908 240.456 321.821 240.456H399.196C401.109 240.456 402.66 238.91 402.66 237.003V236.657C402.66 234.75 401.109 233.204 399.196 233.204Z" fill="#DDE3E9"/>
<path d="M371.479 245.29H321.821C319.908 245.29 318.356 246.836 318.356 248.743V249.089C318.356 250.996 319.908 252.542 321.821 252.542H371.479C373.393 252.542 374.944 250.996 374.944 249.089V248.743C374.944 246.836 373.393 245.29 371.479 245.29Z" fill="#AFB9C5"/>
</g>
<path fill-rule="evenodd" clip-rule="evenodd" d="M443.08 250.931C447.545 250.931 451.164 247.323 451.164 242.873C451.164 238.423 447.545 234.816 443.08 234.816C438.615 234.816 434.996 238.423 434.996 242.873C434.996 247.323 438.615 250.931 443.08 250.931Z" fill="#DDE3E9"/>
<path fill-rule="evenodd" clip-rule="evenodd" d="M443.08 246.326C444.993 246.326 446.544 244.78 446.544 242.873C446.544 240.966 444.993 239.42 443.08 239.42C441.166 239.42 439.615 240.966 439.615 242.873C439.615 244.78 441.166 246.326 443.08 246.326Z" fill="#F2F2F2"/>
<path d="M454.628 276.254H312.582C310.031 276.254 307.963 278.315 307.963 280.858V319.994C307.963 322.537 310.031 324.598 312.582 324.598H454.628C457.18 324.598 459.248 322.537 459.248 319.994V280.858C459.248 278.315 457.18 276.254 454.628 276.254Z" fill="white"/>
<mask id="mask8_32_350" style="mask-type:luminance" maskUnits="userSpaceOnUse" x="353" y="290" width="85" height="21">
<path d="M437.306 290.757H353.002V310.095H437.306V290.757Z" fill="white"/>
</mask>
<g mask="url(#mask8_32_350)">
<path d="M433.841 290.757H356.466C354.553 290.757 353.002 292.303 353.002 294.21V294.556C353.002 296.463 354.553 298.009 356.466 298.009H433.841C435.754 298.009 437.306 296.463 437.306 294.556V294.21C437.306 292.303 435.754 290.757 433.841 290.757Z" fill="#DDE3E9"/>
<path d="M406.125 302.843H356.466C354.553 302.843 353.002 304.389 353.002 306.296V306.642C353.002 308.549 354.553 310.095 356.466 310.095H406.125C408.038 310.095 409.589 308.549 409.589 306.642V306.296C409.589 304.389 408.038 302.843 406.125 302.843Z" fill="#DDE3E9"/>
</g>
<path fill-rule="evenodd" clip-rule="evenodd" d="M332.215 314.239C339.868 314.239 346.073 308.054 346.073 300.426C346.073 292.798 339.868 286.613 332.215 286.613C324.561 286.613 318.356 292.798 318.356 300.426C318.356 308.054 324.561 314.239 332.215 314.239Z" fill="#C5CFD6"/>
<path d="M745.65 86.3293H377.254C372.151 86.3293 368.015 90.4521 368.015 95.5377V475.387C368.015 480.472 372.151 484.595 377.254 484.595H745.65C750.752 484.595 754.888 480.472 754.888 475.387V95.5377C754.888 90.4521 750.752 86.3293 745.65 86.3293Z" fill="#F2F2F2"/>
<path d="M727.172 135.825H664.81C659.708 135.825 655.572 139.948 655.572 145.033V219.852C655.572 224.938 659.708 229.06 664.81 229.06H727.172C732.274 229.06 736.411 224.938 736.411 219.852V145.033C736.411 139.948 732.274 135.825 727.172 135.825Z" fill="white"/>
<path fill-rule="evenodd" clip-rule="evenodd" d="M695.991 189.924C706.197 189.924 714.469 181.679 714.469 171.508C714.469 161.336 706.197 153.091 695.991 153.091C685.786 153.091 677.514 161.336 677.514 171.508C677.514 181.679 685.786 189.924 695.991 189.924Z" fill="#DDE3E9"/>
<path d="M721.398 194.529H670.585C668.671 194.529 667.12 196.075 667.12 197.982C667.12 199.889 668.671 201.435 670.585 201.435H721.398C723.311 201.435 724.862 199.889 724.862 197.982C724.862 196.075 723.311 194.529 721.398 194.529Z" fill="#DDE3E9"/>
<path d="M712.159 206.039H679.823C677.91 206.039 676.359 207.585 676.359 209.492C676.359 211.4 677.91 212.946 679.823 212.946H712.159C714.072 212.946 715.624 211.4 715.624 209.492C715.624 207.585 714.072 206.039 712.159 206.039Z" fill="#DDE3E9"/>
<path d="M368.015 95.5377C368.015 90.4524 372.152 86.3293 377.254 86.3293H745.65C750.752 86.3293 754.888 90.4524 754.888 95.5377V117.408H368.015V95.5377Z" fill="#FFBF23"/>
<path fill-rule="evenodd" clip-rule="evenodd" d="M383.028 107.048C385.579 107.048 387.647 104.987 387.647 102.444C387.647 99.9014 385.579 97.8399 383.028 97.8399C380.477 97.8399 378.408 99.9014 378.408 102.444C378.408 104.987 380.477 107.048 383.028 107.048Z" fill="#F2F2F2"/>
<path fill-rule="evenodd" clip-rule="evenodd" d="M396.886 107.048C399.437 107.048 401.505 104.987 401.505 102.444C401.505 99.9014 399.437 97.8399 396.886 97.8399C394.335 97.8399 392.267 99.9014 392.267 102.444C392.267 104.987 394.335 107.048 396.886 107.048Z" fill="#F2F2F2"/>
<path fill-rule="evenodd" clip-rule="evenodd" d="M410.744 107.048C413.295 107.048 415.364 104.987 415.364 102.444C415.364 99.9014 413.295 97.8399 410.744 97.8399C408.193 97.8399 406.125 99.9014 406.125 102.444C406.125 104.987 408.193 107.048 410.744 107.048Z" fill="#F2F2F2"/>
<path d="M727.172 238.269H664.81C659.708 238.269 655.572 242.392 655.572 247.477V452.366C655.572 457.451 659.708 461.574 664.81 461.574H727.172C732.274 461.574 736.411 457.451 736.411 452.366V247.477C736.411 242.392 732.274 238.269 727.172 238.269Z" fill="white"/>
<path d="M711.004 258.988H680.978C678.427 258.988 676.359 261.049 676.359 263.592V284.311C676.359 286.854 678.427 288.915 680.978 288.915H711.004C713.555 288.915 715.624 286.854 715.624 284.311V263.592C715.624 261.049 713.555 258.988 711.004 258.988Z" fill="#DDE3E9"/>
<path d="M711.004 298.124H680.978C678.427 298.124 676.359 300.185 676.359 302.728V322.296C676.359 324.839 678.427 326.9 680.978 326.9H711.004C713.555 326.9 715.624 324.839 715.624 322.296V302.728C715.624 300.185 713.555 298.124 711.004 298.124Z" fill="#AFB9C5"/>
<path d="M711.004 336.109H680.978C678.427 336.109 676.359 338.17 676.359 340.713V360.281C676.359 362.824 678.427 364.885 680.978 364.885H711.004C713.555 364.885 715.624 362.824 715.624 360.281V340.713C715.624 338.17 713.555 336.109 711.004 336.109Z" fill="#DDE3E9"/>
<path d="M711.004 412.079H680.978C678.427 412.079 676.359 414.14 676.359 416.683V436.251C676.359 438.794 678.427 440.855 680.978 440.855H711.004C713.555 440.855 715.624 438.794 715.624 436.251V416.683C715.624 414.14 713.555 412.079 711.004 412.079Z" fill="#DDE3E9"/>
<path d="M711.004 374.094H680.978C678.427 374.094 676.359 376.155 676.359 378.698V398.266C676.359 400.809 678.427 402.87 680.978 402.87H711.004C713.555 402.87 715.624 400.809 715.624 398.266V378.698C715.624 376.155 713.555 374.094 711.004 374.094Z" fill="#FFBF23"/>
<path d="M641.713 136.976H391.112C388.561 136.976 386.492 139.037 386.492 141.58V186.471C386.492 189.014 388.561 191.076 391.112 191.076H641.713C644.265 191.076 646.333 189.014 646.333 186.471V141.58C646.333 139.037 644.265 136.976 641.713 136.976Z" fill="white"/>
<mask id="mask9_32_350" style="mask-type:luminance" maskUnits="userSpaceOnUse" x="396" y="153" width="194" height="22">
<path d="M589.745 153.206H396.886V174.846H589.745V153.206Z" fill="white"/>
</mask>
<g mask="url(#mask9_32_350)">
<path d="M586.281 153.206H400.351C398.437 153.206 396.886 154.752 396.886 156.659V157.867C396.886 159.775 398.437 161.321 400.351 161.321H586.281C588.194 161.321 589.745 159.775 589.745 157.867V156.659C589.745 154.752 588.194 153.206 586.281 153.206Z" fill="#DDE3E9"/>
<path d="M522.875 166.731H400.351C398.437 166.731 396.886 168.277 396.886 170.184V171.392C396.886 173.3 398.437 174.846 400.351 174.846H522.875C524.789 174.846 526.34 173.3 526.34 171.392V170.184C526.34 168.277 524.789 166.731 522.875 166.731Z" fill="#DDE3E9"/>
</g>
<path fill-rule="evenodd" clip-rule="evenodd" d="M618.563 172.083C623.028 172.083 626.647 168.476 626.647 164.026C626.647 159.576 623.028 155.968 618.563 155.968C614.099 155.968 610.479 159.576 610.479 164.026C610.479 168.476 614.099 172.083 618.563 172.083Z" fill="#DDE3E9"/>
<path fill-rule="evenodd" clip-rule="evenodd" d="M618.563 167.479C620.477 167.479 622.028 165.933 622.028 164.026C622.028 162.118 620.477 160.573 618.563 160.573C616.65 160.573 615.099 162.118 615.099 164.026C615.099 165.933 616.65 167.479 618.563 167.479Z" fill="#F2F2F2"/>
<path d="M641.713 200.284H391.112C388.561 200.284 386.492 202.345 386.492 204.888V240.571C386.492 243.114 388.561 245.175 391.112 245.175H641.713C644.265 245.175 646.333 243.114 646.333 240.571V204.888C646.333 202.345 644.265 200.284 641.713 200.284Z" fill="white"/>
<mask id="mask10_32_350" style="mask-type:luminance" maskUnits="userSpaceOnUse" x="396" y="213" width="194" height="19">
<path d="M589.745 213.751H396.886V231.708H589.745V213.751Z" fill="white"/>
</mask>
<g mask="url(#mask10_32_350)">
<path d="M586.367 213.751H400.264C398.398 213.751 396.886 215.259 396.886 217.118C396.886 218.978 398.398 220.485 400.264 220.485H586.367C588.233 220.485 589.745 218.978 589.745 217.118C589.745 215.259 588.233 213.751 586.367 213.751Z" fill="#DDE3E9"/>
<path d="M522.962 224.974H400.264C398.398 224.974 396.886 226.482 396.886 228.341C396.886 230.2 398.398 231.708 400.264 231.708H522.962C524.827 231.708 526.34 230.2 526.34 228.341C526.34 226.482 524.827 224.974 522.962 224.974Z" fill="#DDE3E9"/>
</g>
<path fill-rule="evenodd" clip-rule="evenodd" d="M618.563 230.787C623.028 230.787 626.647 227.18 626.647 222.73C626.647 218.28 623.028 214.672 618.563 214.672C614.099 214.672 610.479 218.28 610.479 222.73C610.479 227.18 614.099 230.787 618.563 230.787Z" fill="#DDE3E9"/>
<path fill-rule="evenodd" clip-rule="evenodd" d="M618.563 226.183C620.477 226.183 622.028 224.637 622.028 222.73C622.028 220.822 620.477 219.276 618.563 219.276C616.65 219.276 615.099 220.822 615.099 222.73C615.099 224.637 616.65 226.183 618.563 226.183Z" fill="#F2F2F2"/>
<path d="M641.713 254.384H391.112C388.561 254.384 386.492 256.445 386.492 258.988V294.671C386.492 297.214 388.561 299.275 391.112 299.275H641.713C644.265 299.275 646.333 297.214 646.333 294.671V258.988C646.333 256.445 644.265 254.384 641.713 254.384Z" fill="white"/>
<mask id="mask11_32_350" style="mask-type:luminance" maskUnits="userSpaceOnUse" x="396" y="267" width="194" height="19">
<path d="M589.745 267.851H396.886V285.808H589.745V267.851Z" fill="white"/>
</mask>
<g mask="url(#mask11_32_350)">
<path d="M586.367 267.851H400.264C398.398 267.851 396.886 269.358 396.886 271.218C396.886 273.077 398.398 274.585 400.264 274.585H586.367C588.233 274.585 589.745 273.077 589.745 271.218C589.745 269.358 588.233 267.851 586.367 267.851Z" fill="#DDE3E9"/>
<path d="M522.962 279.074H400.264C398.398 279.074 396.886 280.581 396.886 282.441C396.886 284.3 398.398 285.808 400.264 285.808H522.962C524.827 285.808 526.34 284.3 526.34 282.441C526.34 280.581 524.827 279.074 522.962 279.074Z" fill="#DDE3E9"/>
</g>
<path fill-rule="evenodd" clip-rule="evenodd" d="M618.563 284.887C623.028 284.887 626.647 281.279 626.647 276.829C626.647 272.379 623.028 268.772 618.563 268.772C614.099 268.772 610.479 272.379 610.479 276.829C610.479 281.279 614.099 284.887 618.563 284.887Z" fill="#DDE3E9"/>
<path fill-rule="evenodd" clip-rule="evenodd" d="M618.563 280.283C620.477 280.283 622.028 278.737 622.028 276.829C622.028 274.922 620.477 273.376 618.563 273.376C616.65 273.376 615.099 274.922 615.099 276.829C615.099 278.737 616.65 280.283 618.563 280.283Z" fill="#AFB9C5"/>
<path d="M641.713 416.683H391.112C388.561 416.683 386.492 418.744 386.492 421.287V456.97C386.492 459.513 388.561 461.574 391.112 461.574H641.713C644.265 461.574 646.333 459.513 646.333 456.97V421.287C646.333 418.744 644.265 416.683 641.713 416.683Z" fill="white"/>
<mask id="mask12_32_350" style="mask-type:luminance" maskUnits="userSpaceOnUse" x="396" y="430" width="194" height="19">
<path d="M589.745 430.15H396.886V448.107H589.745V430.15Z" fill="white"/>
</mask>
<g mask="url(#mask12_32_350)">
<path d="M586.367 430.15H400.264C398.398 430.15 396.886 431.658 396.886 433.517C396.886 435.376 398.398 436.884 400.264 436.884H586.367C588.233 436.884 589.745 435.376 589.745 433.517C589.745 431.658 588.233 430.15 586.367 430.15Z" fill="#DDE3E9"/>
<path d="M522.962 441.373H400.264C398.398 441.373 396.886 442.88 396.886 444.74C396.886 446.599 398.398 448.107 400.264 448.107H522.962C524.827 448.107 526.34 446.599 526.34 444.74C526.34 442.88 524.827 441.373 522.962 441.373Z" fill="#DDE3E9"/>
</g>
<path fill-rule="evenodd" clip-rule="evenodd" d="M618.563 447.186C623.028 447.186 626.647 443.578 626.647 439.128C626.647 434.678 623.028 431.071 618.563 431.071C614.099 431.071 610.479 434.678 610.479 439.128C610.479 443.578 614.099 447.186 618.563 447.186Z" fill="#DDE3E9"/>
<path fill-rule="evenodd" clip-rule="evenodd" d="M618.563 442.582C620.477 442.582 622.028 441.036 622.028 439.128C622.028 437.221 620.477 435.675 618.563 435.675C616.65 435.675 615.099 437.221 615.099 439.128C615.099 441.036 616.65 442.582 618.563 442.582Z" fill="#F2F2F2"/>
<path d="M641.713 362.583H391.112C388.561 362.583 386.492 364.644 386.492 367.187V402.87C386.492 405.413 388.561 407.474 391.112 407.474H641.713C644.265 407.474 646.333 405.413 646.333 402.87V367.187C646.333 364.644 644.265 362.583 641.713 362.583Z" fill="white"/>
<mask id="mask13_32_350" style="mask-type:luminance" maskUnits="userSpaceOnUse" x="396" y="376" width="194" height="19">
<path d="M589.745 376.05H396.886V394.007H589.745V376.05Z" fill="white"/>
</mask>
<g mask="url(#mask13_32_350)">
<path d="M586.367 376.05H400.264C398.398 376.05 396.886 377.558 396.886 379.417C396.886 381.277 398.398 382.784 400.264 382.784H586.367C588.233 382.784 589.745 381.277 589.745 379.417C589.745 377.558 588.233 376.05 586.367 376.05Z" fill="#DDE3E9"/>
<path d="M522.962 387.273H400.264C398.398 387.273 396.886 388.781 396.886 390.64C396.886 392.5 398.398 394.007 400.264 394.007H522.962C524.827 394.007 526.34 392.5 526.34 390.64C526.34 388.781 524.827 387.273 522.962 387.273Z" fill="#DDE3E9"/>
</g>
<path fill-rule="evenodd" clip-rule="evenodd" d="M618.563 393.086C623.028 393.086 626.647 389.479 626.647 385.029C626.647 380.579 623.028 376.971 618.563 376.971C614.099 376.971 610.479 380.579 610.479 385.029C610.479 389.479 614.099 393.086 618.563 393.086Z" fill="#DDE3E9"/>
<path fill-rule="evenodd" clip-rule="evenodd" d="M618.563 388.482C620.477 388.482 622.028 386.936 622.028 385.029C622.028 383.121 620.477 381.576 618.563 381.576C616.65 381.576 615.099 383.121 615.099 385.029C615.099 386.936 616.65 388.482 618.563 388.482Z" fill="#F2F2F2"/>
<path d="M641.713 308.483H391.112C388.561 308.483 386.492 310.545 386.492 313.088V348.77C386.492 351.313 388.561 353.375 391.112 353.375H641.713C644.265 353.375 646.333 351.313 646.333 348.77V313.088C646.333 310.545 644.265 308.483 641.713 308.483Z" fill="white"/>
<mask id="mask14_32_350" style="mask-type:luminance" maskUnits="userSpaceOnUse" x="396" y="321" width="194" height="19">
<path d="M589.745 321.951H396.886V339.907H589.745V321.951Z" fill="white"/>
</mask>
<g mask="url(#mask14_32_350)">
<path d="M586.367 321.951H400.264C398.398 321.951 396.886 323.458 396.886 325.318C396.886 327.177 398.398 328.684 400.264 328.684H586.367C588.233 328.684 589.745 327.177 589.745 325.318C589.745 323.458 588.233 321.951 586.367 321.951Z" fill="#DDE3E9"/>
<path d="M522.962 333.174H400.264C398.398 333.174 396.886 334.681 396.886 336.54C396.886 338.4 398.398 339.907 400.264 339.907H522.962C524.827 339.907 526.34 338.4 526.34 336.54C526.34 334.681 524.827 333.174 522.962 333.174Z" fill="#DDE3E9"/>
</g>
<path fill-rule="evenodd" clip-rule="evenodd" d="M618.563 338.986C623.028 338.986 626.647 335.379 626.647 330.929C626.647 326.479 623.028 322.872 618.563 322.872C614.099 322.872 610.479 326.479 610.479 330.929C610.479 335.379 614.099 338.986 618.563 338.986Z" fill="#DDE3E9"/>
<path fill-rule="evenodd" clip-rule="evenodd" d="M618.563 334.382C620.477 334.382 622.028 332.836 622.028 330.929C622.028 329.022 620.477 327.476 618.563 327.476C616.65 327.476 615.099 329.022 615.099 330.929C615.099 332.836 616.65 334.382 618.563 334.382Z" fill="#F2F2F2"/>
<path fill-rule="evenodd" clip-rule="evenodd" d="M850.729 282.442C846.167 279.363 840.116 278.556 834.665 278.556C813.37 278.556 793.357 286.429 776.069 298.161C766.596 304.588 758.122 312.775 750.641 321.297C746.322 326.218 742.471 331.539 739.745 337.459C737.905 341.454 736.643 345.618 735.787 349.911C734.744 355.144 733.915 360.482 733.541 365.803C733.393 367.898 732.172 379.013 735.667 379.202C735.646 379.476 735.642 379.737 735.663 379.971C728.075 391.797 723.387 405.656 719.039 418.795C715.257 430.23 711.886 441.76 709.699 453.589C706.818 469.162 704.926 484.97 704.026 500.768C703.834 504.162 703.701 507.559 703.586 510.958C703.489 513.857 703.391 516.757 703.295 519.658C703.189 522.907 702.615 526.648 703.134 529.878C703.585 532.691 706.028 532.265 706.136 529.466C706.267 526.085 706.245 522.698 706.394 519.315C706.591 514.824 706.795 510.334 707.015 505.845C708.55 474.66 714.307 443.934 724.933 414.477C729.233 402.557 734.16 391.273 740.493 380.246C746.061 370.551 752.759 361.164 759.605 352.423C766.258 343.927 773.176 335.629 781.328 328.431C787.945 322.591 795.222 317.502 802.699 312.768C812.203 306.754 821.684 300.888 831.986 296.272C837.333 293.873 842.784 291.725 848.177 289.422C849.147 289.009 850.186 288.607 851.121 288.127C854.228 286.527 853.2 284.118 850.729 282.442Z" fill="#C1DEE2"/>
<path fill-rule="evenodd" clip-rule="evenodd" d="M765.072 391.359C773.706 391.359 781.391 392.478 789.347 395.898C796.214 398.851 802.468 402.758 808.554 407.013C817.1 412.997 823.833 419.961 828.544 429.189C831.362 434.701 833.429 442.502 831.535 448.515C829.307 455.597 823.186 461.504 815.137 460.256C810.159 459.485 805.586 456.199 801.804 453.106C797.275 449.405 793.649 444.956 790.656 440.015C785.773 431.954 782.905 422.842 778.757 414.419C776.789 410.421 774.887 406.396 772.529 402.596C771.362 400.715 770.119 398.852 768.349 397.453C767.402 396.705 763.409 395.411 764.935 393.732C742.543 394.024 722.705 411.166 718.405 432.384C718.006 434.362 717.693 436.355 717.361 438.346C717.154 439.601 717.238 444.236 716.111 445.038C713.626 446.808 714.67 441.429 714.777 440.655C715.053 438.653 715.346 436.654 715.655 434.657C717.334 423.797 722.184 413.703 730.273 405.958C739.522 397.103 752.002 391.359 765.072 391.359Z" fill="#89C5CC"/>
<path fill-rule="evenodd" clip-rule="evenodd" d="M29.5733 429.041C51.1297 465.087 76.2372 499.989 91.3149 539.4C90.7074 534.755 90.063 530.114 89.3412 525.481C85.5164 500.916 80.7608 476.531 75.7649 452.176C73.2208 439.775 70.5288 427.419 67.7687 415.064C66.2848 408.429 64.8181 401.789 63.3029 395.16C62.9357 393.553 62.6204 390.748 62.162 387.906C76.8147 435.833 90.9453 483.795 101.281 532.873C102.637 539.314 103.792 545.744 104.738 552.162C105.061 550.698 105.38 549.234 105.727 547.773C109.91 530.269 116.183 512.904 123.653 496.536C127.224 488.71 131.325 481.055 136.154 473.92C139.166 469.474 146.268 464.188 149.014 459.633C133.991 487.1 128.566 521.466 119.89 551.325C117.774 558.613 115.643 565.888 113.555 573.175C126.637 547.025 146.935 525.539 175.156 516.23C140.995 538.726 120.506 578.123 106.699 618.417C106.654 618.895 106.599 619.372 106.552 619.851C110.616 612.166 115.733 605.213 122.669 600.346C137.516 589.922 153.984 592.958 168.385 601.899C157.082 594.739 136.656 601.259 127.146 608.538C120.338 613.747 114.52 620.737 109.468 627.557C108.258 629.191 106.605 631.098 104.86 633.132C102.414 648.96 98.4276 664.68 92.7827 680.275C93.7147 675.799 93.0414 668.64 93.3001 665.303C93.3278 664.943 93.3509 664.58 93.3786 664.221C92.5205 667.635 91.6914 671.01 90.8934 674.332C92.4801 667.994 93.3417 661.378 94.0149 654.694C94.1882 651.822 94.3579 648.949 94.5358 646.077C94.4792 640.624 94.254 635.152 93.8729 629.67C92.5229 624.343 91.01 619.317 89.7616 615.138C85.2612 600.058 78.6613 585.612 70.5392 572.134C63.1286 559.835 54.257 548.695 44.017 538.62C38.4957 533.189 32.718 528.019 27.0223 522.776C24.9621 520.88 21.2804 516.219 18.0965 513.789C41.2858 526.533 65.1553 540.318 82.0727 560.85C80.0886 553.259 77.9349 545.775 75.6563 538.442C64.0952 501.233 49.4979 462.671 29.5733 429.041Z" fill="#DDE3E9"/>
<path fill-rule="evenodd" clip-rule="evenodd" d="M52.7419 633.082C52.7419 674.403 56.0251 707.9 100.091 707.9C144.156 707.9 147.439 674.403 147.439 633.082" fill="#FFBF23"/>
<path d="M663.656 40.287C663.656 38.3799 662.104 36.8339 660.191 36.8339C658.278 36.8339 656.726 38.3799 656.726 40.287V62.1571C656.726 64.0643 658.278 65.6103 660.191 65.6103C662.104 65.6103 663.656 64.0643 663.656 62.1571V40.287Z" fill="#FFBF23"/>
<path d="M679.823 21.8701C679.823 19.963 678.272 18.4169 676.359 18.4169C674.445 18.4169 672.894 19.963 672.894 21.8701V62.1571C672.894 64.0642 674.445 65.6103 676.359 65.6103C678.272 65.6103 679.823 64.0642 679.823 62.1571V21.8701Z" fill="#FFBF23"/>
<path d="M695.991 12.6616C695.991 10.7545 694.44 9.20844 692.527 9.20844C690.613 9.20844 689.062 10.7545 689.062 12.6616V62.1571C689.062 64.0642 690.613 65.6102 692.527 65.6102C694.44 65.6102 695.991 64.0642 695.991 62.1571V12.6616Z" fill="#FFBF23"/>
<path d="M712.159 21.8701C712.159 19.963 710.608 18.4169 708.695 18.4169C706.781 18.4169 705.23 19.963 705.23 21.8701V62.1571C705.23 64.0642 706.781 65.6103 708.695 65.6103C710.608 65.6103 712.159 64.0642 712.159 62.1571V21.8701Z" fill="#FFBF23"/>
<path d="M728.327 3.45317C728.327 1.54604 726.776 0 724.862 0C722.949 0 721.398 1.54604 721.398 3.45317V62.1571C721.398 64.0642 722.949 65.6103 724.862 65.6103C726.776 65.6103 728.327 64.0642 728.327 62.1571V3.45317Z" fill="#FFBF23"/>
<path fill-rule="evenodd" clip-rule="evenodd" d="M88.5421 352.518C88.5421 339.697 98.938 329.202 111.639 329.202V352.518L95.8546 369.489C91.3646 365.34 88.5421 359.253 88.5421 352.518Z" fill="#F2F2F2"/>
<path fill-rule="evenodd" clip-rule="evenodd" d="M111.028 352.224H134.353C134.353 358.233 131.893 363.864 128.004 367.956C123.728 372.432 117.638 375.245 111.028 375.245C104.939 375.245 99.3653 372.817 95.0878 368.98L111.028 352.224Z" fill="#AFB9C5"/>
<path fill-rule="evenodd" clip-rule="evenodd" d="M134.736 352.224C134.736 339.564 124.34 329.202 111.639 329.202V352.224H134.736ZM100.091 329.202L109.329 349.921L88.5421 340.713C90.5977 335.342 95.2137 331.251 100.091 329.202Z" fill="#C5CFD6"/>
<path fill-rule="evenodd" clip-rule="evenodd" d="M840.081 362.789C837.852 365.137 834.711 366.612 831.224 366.612C824.502 366.612 819.052 361.201 819.052 354.526C819.052 347.851 824.502 342.44 831.224 342.44V319.994C812.111 319.994 796.463 335.537 796.463 354.526C796.463 373.515 812.111 389.057 831.224 389.057C841.259 389.057 850.325 384.838 856.515 378.125L840.081 362.789Z" fill="#F2F2F2"/>
<path fill-rule="evenodd" clip-rule="evenodd" d="M831.108 319.994V342.44C837.806 342.44 843.234 347.851 843.234 354.526H865.754C865.754 335.537 850.163 319.994 831.108 319.994Z" fill="#AFB9C5"/>
<path fill-rule="evenodd" clip-rule="evenodd" d="M842.772 354.526C842.772 358.447 840.913 361.933 838.037 364.184L852.196 382.151C860.441 375.719 865.754 365.747 865.754 354.526H842.772Z" fill="#C5CFD6"/>
<path fill-rule="evenodd" clip-rule="evenodd" d="M619.83 45.4714C618.123 47.2716 615.705 48.402 613.015 48.402C607.848 48.402 603.659 44.2535 603.659 39.1359C603.659 34.0183 607.848 29.8699 613.015 29.8699V12.6616C598.314 12.6616 586.281 24.5774 586.281 39.1359C586.281 53.6945 598.314 65.6103 613.015 65.6103C620.738 65.6103 627.717 62.3746 632.475 57.2283L619.83 45.4714Z" fill="#FFBF23"/>
<path fill-rule="evenodd" clip-rule="evenodd" d="M612.842 12.6616V29.8699C617.977 29.8699 622.139 34.0183 622.139 39.1359H639.404C639.404 24.5774 627.449 12.6616 612.842 12.6616Z" fill="#AFB9C5"/>
<path fill-rule="evenodd" clip-rule="evenodd" d="M622.165 39.1359C622.165 42.0769 620.775 44.6921 618.616 46.3795L629.236 59.855C635.419 55.0309 639.404 47.5525 639.404 39.1359H622.165Z" fill="#C5CFD6"/>
<path fill-rule="evenodd" clip-rule="evenodd" d="M199.415 65.5941C199.411 65.6056 199.406 65.6171 199.399 65.6309C199.406 65.6194 199.415 65.5735 199.415 65.5941Z" fill="#C5CFD6"/>
<path fill-rule="evenodd" clip-rule="evenodd" d="M199.405 65.611C199.405 65.6132 199.403 65.6177 199.403 65.6222C199.403 65.611 199.423 65.5775 199.405 65.611Z" fill="#C5CFD6"/>
<path fill-rule="evenodd" clip-rule="evenodd" d="M199.484 65.4169C199.468 65.463 199.447 65.5067 199.429 65.5528C199.438 65.5297 199.447 65.5113 199.457 65.4883C199.217 66.0868 199.369 65.6978 199.484 65.4169Z" fill="#C5CFD6"/>
<path fill-rule="evenodd" clip-rule="evenodd" d="M199.432 65.5562C199.423 65.5767 199.414 65.5996 199.405 65.6202C199.338 65.7483 199.432 65.5562 199.432 65.5562Z" fill="#C5CFD6"/>
<path fill-rule="evenodd" clip-rule="evenodd" d="M199.396 65.6284C199.46 65.5232 199.382 65.6559 199.396 65.6284Z" fill="#C5CFD6"/>
<path fill-rule="evenodd" clip-rule="evenodd" d="M199.405 65.612L199.409 65.608C199.407 65.61 199.407 65.612 199.405 65.612Z" fill="#C5CFD6"/>
<path d="M249.066 5.75531H148.594C146.043 5.75531 143.975 7.81669 143.975 10.3595V73.6677C143.975 76.2105 146.043 78.2719 148.594 78.2719H249.066C251.617 78.2719 253.685 76.2105 253.685 73.6677V10.3595C253.685 7.81669 251.617 5.75531 249.066 5.75531Z" fill="#FFBF23"/>
<path fill-rule="evenodd" clip-rule="evenodd" d="M185.549 26.4743L153.214 78.2719H217.885L185.549 26.4743Z" fill="#AFB9C5"/>
<path fill-rule="evenodd" clip-rule="evenodd" d="M217.307 40.287L189.014 78.2719H245.601L217.307 40.287Z" fill="#C5CFD6"/>
<path fill-rule="evenodd" clip-rule="evenodd" d="M229.433 40.287C235.174 40.287 239.827 35.6494 239.827 29.9275C239.827 24.2056 235.174 19.568 229.433 19.568C223.693 19.568 219.04 24.2056 219.04 29.9275C219.04 35.6494 223.693 40.287 229.433 40.287Z" fill="white"/>
<path fill-rule="evenodd" clip-rule="evenodd" d="M750.261 557.096C750.265 557.107 750.27 557.119 750.277 557.132C750.27 557.121 750.261 557.075 750.261 557.096Z" fill="#C5CFD6"/>
<path fill-rule="evenodd" clip-rule="evenodd" d="M750.271 557.113C750.271 557.115 750.273 557.119 750.273 557.124C750.273 557.113 750.253 557.079 750.271 557.113Z" fill="#C5CFD6"/>
<path fill-rule="evenodd" clip-rule="evenodd" d="M750.192 556.918C750.208 556.964 750.228 557.008 750.247 557.054C750.238 557.031 750.228 557.013 750.219 556.99C750.459 557.588 750.307 557.199 750.192 556.918Z" fill="#C5CFD6"/>
<path fill-rule="evenodd" clip-rule="evenodd" d="M750.244 557.058C750.253 557.078 750.262 557.101 750.271 557.122C750.337 557.25 750.244 557.058 750.244 557.058Z" fill="#C5CFD6"/>
<path fill-rule="evenodd" clip-rule="evenodd" d="M750.28 557.13C750.294 557.157 750.216 557.025 750.28 557.13Z" fill="#C5CFD6"/>
<path fill-rule="evenodd" clip-rule="evenodd" d="M750.271 557.114L750.266 557.109C750.268 557.111 750.269 557.114 750.271 557.114Z" fill="#C5CFD6"/>
<path d="M672.894 468.48H827.644C830.195 468.48 832.263 470.542 832.263 473.085V572.076C832.263 574.618 830.195 576.68 827.644 576.68H672.894C670.343 576.68 668.275 574.618 668.275 572.076V473.085C668.275 470.542 670.343 468.48 672.894 468.48Z" fill="#FFBF23"/>
<path fill-rule="evenodd" clip-rule="evenodd" d="M771.373 499.559L818.786 576.68H723.96L771.373 499.559Z" fill="#AFB9C5"/>
<path fill-rule="evenodd" clip-rule="evenodd" d="M722.488 520.216L764.403 576.68H680.573L722.488 520.216Z" fill="#C5CFD6"/>
<path fill-rule="evenodd" clip-rule="evenodd" d="M704.653 520.278C696.042 520.278 689.062 513.321 689.062 504.739C689.062 496.156 696.042 489.199 704.653 489.199C713.263 489.199 720.243 496.156 720.243 504.739C720.243 513.321 713.263 520.278 704.653 520.278Z" fill="white"/>
<path fill-rule="evenodd" clip-rule="evenodd" d="M264.288 387.428C272.688 392.477 280.942 394.917 284.816 393.922C294.532 391.424 295.426 355.973 287.908 341.996C280.391 328.021 241.745 321.929 239.797 349.62C239.12 359.23 243.167 367.808 249.144 374.806L238.426 424.635H269.561L264.288 387.428Z" fill="#B28B67"/>
<path fill-rule="evenodd" clip-rule="evenodd" d="M226.223 340.402C225.217 339.409 224.668 337.99 224.194 336.643C223.702 335.243 223.222 333.83 222.896 332.372C222.242 329.463 222.235 326.115 224.317 323.856C225.986 322.044 228.491 321.23 230.803 321.054C232.343 320.937 233.926 321.151 235.401 321.635C236.866 322.115 238.129 323.073 239.548 323.667C239.603 320.53 240.142 317.249 241.737 314.571C243.272 311.994 245.72 310.548 248.507 310.166C251.367 309.774 254.193 310.441 256.753 311.823C257.394 312.168 258.031 312.531 258.638 312.941C259.147 313.284 259.676 313.699 260.273 313.838C260.94 313.994 261.269 313.61 261.702 313.126C262.209 312.558 262.781 312.057 263.386 311.614C266.06 309.653 269.57 308.847 272.668 310.022C274.096 310.563 275.485 311.483 276.453 312.75C277.317 313.881 277.932 315.673 279.124 316.459C279.63 316.794 279.987 316.351 280.447 316.024C281.139 315.532 281.799 314.989 282.498 314.512C283.481 313.839 284.546 313.337 285.686 313.074C287.355 312.689 289.661 312.779 290.138 314.959C290.317 315.778 290.18 316.654 290.122 317.479C290.043 318.612 289.96 319.744 289.861 320.876C289.787 321.734 289.692 322.564 289.529 323.408C289.443 323.857 289.171 324.695 289.364 325.146C289.607 325.709 290.721 325.389 291.197 325.409C292.138 325.447 293.083 325.611 293.952 326.012C294.627 326.324 295.336 326.781 295.62 327.551C295.795 328.024 295.749 328.511 295.666 328.998C295.567 329.582 295.681 329.892 295.755 330.482C297.018 329.862 301.396 328.483 301.947 330.741C302.131 331.493 301.713 332.343 301.394 332.977C300.835 334.09 300.103 335.106 299.353 336.077C297.791 338.099 295.926 339.844 293.919 341.336C296.27 342.379 296.884 345.454 294.847 347.287C293.949 348.096 292.74 348.277 291.606 348.225C291.191 348.205 290.593 348.046 290.266 348.119C290.09 348.157 289.902 348.305 289.658 348.323C288.058 348.432 286.252 348.048 284.687 347.693C281.9 347.062 279.26 345.744 277.105 343.738C276.552 343.223 276.096 342.928 275.352 342.935C274.7 342.941 274.06 343.12 273.409 343.136C271.684 343.18 270.13 342.339 268.529 341.78C268.432 343.937 267.816 346.313 266.931 348.252C266.21 349.835 264.705 350.065 263.224 350.203C258.49 350.648 253.74 350.152 249.002 350.159C253.589 351.193 258.33 351.619 262.876 352.836C264.932 353.386 263.363 354.769 262.484 355.726C261.037 357.303 259.96 359.258 259.214 361.316C256.971 358.398 253.004 356.476 249.489 357.372C245.607 358.362 242.872 363.599 245.355 367.366C246.796 369.552 249.399 370.395 251.566 371.335C249.876 373.087 249.467 375.674 248.45 377.854C247.949 378.929 247.244 380.145 246.123 380.52C245.707 380.658 245.221 380.671 244.893 381.008C244.488 381.426 244.392 381.893 243.873 382.252C241.806 383.685 238.578 383.575 236.746 381.704C235.09 380.012 235.52 377.336 236.904 375.621C234.702 374.705 230.689 373.527 231.564 370.105C226.792 369.789 215.204 362.069 221.609 356.427C218.094 354.445 214.865 349.603 217.123 345.333C218.862 342.046 222.905 340.577 226.223 340.402Z" fill="#191847"/>
<path fill-rule="evenodd" clip-rule="evenodd" d="M192.531 587.67H292.752L305.884 748.117H156.698L192.531 587.67Z" fill="#FFBF23"/>
<path fill-rule="evenodd" clip-rule="evenodd" d="M192.531 587.67H223.355L241.804 748.117H156.698L192.531 587.67Z" fill="black" fill-opacity="0.1"/>
<path fill-rule="evenodd" clip-rule="evenodd" d="M347.817 619.458C336.555 643.281 318.956 701.111 318.956 701.111L333.896 707.92C333.896 707.92 371.804 647.129 394.971 605.574C393.891 614.928 392.792 625.46 391.773 636.532C389.36 662.762 391.772 719.427 393.07 735.796C393.887 746.083 407.902 743.928 409.209 735.77C409.431 734.387 410.334 729.536 411.682 722.297C418.289 686.802 435.581 593.904 435.611 571.158C435.624 562.005 417.696 553.783 407.011 560.183C399.672 552.371 385.78 547.869 377.8 560.772C372.727 568.976 360.672 592.264 347.817 619.458Z" fill="#B28B67"/>
<path fill-rule="evenodd" clip-rule="evenodd" d="M320.024 679.702L371.303 558.54C383.587 538.831 418.029 562.552 413.839 573.983C404.329 599.936 355.958 683.957 353.125 691.689L320.024 679.702Z" fill="#1F28CF"/>
<path fill-rule="evenodd" clip-rule="evenodd" d="M320.832 693.762C320.039 692.671 318.49 692.413 317.452 693.277C315.329 695.044 312.086 697.924 310.942 699.898C309.188 702.929 306.834 709.326 306.834 709.326C310.36 711.357 370.201 745.817 370.201 745.817C370.201 745.817 377.385 739.095 372.439 735.381C367.494 731.667 364.277 729.117 364.277 729.117L342.319 698.943C341.937 698.417 341.196 698.31 340.68 698.706L336.02 702.285C336.02 702.285 329.766 701.741 326.686 699.967C324.733 698.843 322.33 695.823 320.832 693.762Z" fill="#E4E4E4"/>
<path fill-rule="evenodd" clip-rule="evenodd" d="M393.103 727.657C391.868 727.107 390.397 727.657 389.932 728.922C388.979 731.512 387.613 735.624 387.613 737.903C387.613 741.403 388.781 748.117 388.781 748.117C392.852 748.117 461.95 748.117 461.95 748.117C461.95 748.117 464.803 738.713 458.658 737.963C452.513 737.213 448.449 736.609 448.449 736.609L414.307 721.428C413.712 721.163 413.017 721.44 412.769 722.04L410.527 727.465C410.527 727.465 404.838 730.112 401.281 730.112C399.027 730.112 395.433 728.695 393.103 727.657Z" fill="#E4E4E4"/>
<path fill-rule="evenodd" clip-rule="evenodd" d="M439.205 580.467C439.205 614.843 422.839 695.028 422.829 702.597L387.613 702.624C387.613 702.624 395.344 595.302 393.096 594.145C390.847 592.989 300.923 603.1 273.954 603.1C235.063 603.1 218.975 578.639 217.669 533.325H294.71C310.396 534.999 392.217 551.46 422.603 557.119C435.611 559.541 439.205 570.997 439.205 580.467Z" fill="#2B44FF"/>
<path fill-rule="evenodd" clip-rule="evenodd" d="M334.073 549.194C309.435 600.372 205.723 565.816 205.723 565.816C205.723 556.947 209.25 548.056 212.954 538.719C216.924 528.707 221.1 518.182 221.349 506.62C221.809 485.348 225.797 420.899 242.438 399.128C242.742 398.145 243.049 397.159 243.361 396.169L244.513 396.71C244.692 396.524 244.874 396.345 245.056 396.169L281.368 401.769C281.368 418.15 291.878 433.684 301.34 447.668C303.641 451.07 305.882 454.38 307.894 457.589C310.528 461.792 313.501 466.07 316.548 470.455C331.978 492.656 349.296 517.572 334.073 549.194Z" fill="#C1DEE2"/>
<path fill-rule="evenodd" clip-rule="evenodd" d="M287.544 539.52C289.973 527.02 291.548 518.675 292.271 514.485C311.616 536.289 322.791 547.317 325.797 547.57C331.452 548.046 335.629 543.045 336.82 544.45C338.786 550.273 333.232 564.848 322.617 566.967C317.548 567.98 309.703 557.553 306.471 553.859C305.2 552.405 298.891 547.626 287.544 539.52ZM320.961 472.876C325.975 472.876 328.668 474.944 331.634 479.116C334.598 483.288 337.404 502.964 332.644 502.964C327.884 502.964 307.939 495.358 307.939 490.245C307.939 485.13 321.547 482.965 321.547 479.116C321.547 475.266 315.945 472.876 320.961 472.876Z" fill="#B28B67"/>
<path fill-rule="evenodd" clip-rule="evenodd" d="M236.564 420.389C223.828 473.353 229.016 518.022 277.419 558.54C276.85 560.575 276.509 561.792 276.509 561.792C219.694 522.185 219.667 474.188 236.564 420.389Z" fill="black" fill-opacity="0.2"/>
<path fill-rule="evenodd" clip-rule="evenodd" d="M629.96 305.778C621.547 310.833 613.281 313.274 609.401 312.277C599.67 309.778 598.776 274.299 606.305 260.313C613.833 246.325 652.537 240.229 654.487 267.942C655.164 277.559 651.113 286.144 645.126 293.147L655.86 343.015H624.679L629.96 305.778Z" fill="#B28B67"/>
<path fill-rule="evenodd" clip-rule="evenodd" d="M624.077 244.192C628.187 243.52 639.251 243.058 641.292 243.058C642.596 243.058 644.009 243.355 644.782 242.163C645.413 241.185 645.183 239.533 645.371 238.398C645.59 237.081 645.902 235.78 646.216 234.483C647.112 230.792 648.468 227.28 650.363 223.983C653.921 217.797 659.133 212.951 665.712 210.132C672.979 207.019 681.2 206.306 689.015 206.937C697.378 207.613 704.949 210.365 712.846 212.955C720.371 215.423 728.252 216.393 736.122 215.189C744.052 213.975 750.044 209.69 756.731 205.625C763.579 201.463 771.404 198.74 779.498 199.367C787.054 199.95 794.018 203.06 800.266 207.215C806.117 211.1 810.933 215.777 813.658 222.358C816.592 229.437 816.58 237.208 811.764 243.465C804.789 252.533 791.821 254.879 781.037 254.645C774.799 254.51 768.673 253.375 762.783 251.312C754.929 248.557 748.141 243.891 740.793 240.104C737.345 238.326 733.78 236.867 730.044 235.816C726.418 234.796 722.847 234.328 719.565 236.51C716.092 238.82 712.98 241.089 709.007 242.535C705.196 243.921 701.16 244.696 697.1 244.665C689.2 244.604 681.412 242.151 673.74 240.508C667.483 239.168 660.788 237.833 654.409 239.121C651.747 239.658 647.859 240.768 646.898 243.526C663.078 246.448 669.433 266.394 664.871 281.035C662.409 288.938 647.61 298.177 641.857 294.023C638.211 291.39 640.425 287.935 641.857 285.653C644.599 281.285 645.538 275.674 640.463 272.633C636.085 270.009 631.481 276.239 631.394 276.232C630.192 276.138 619.793 270.276 612.631 261.724C605.563 262.142 604.492 257.497 606.179 253.699C607.866 249.901 618.398 245.121 624.077 244.192Z" fill="#191847"/>
<path fill-rule="evenodd" clip-rule="evenodd" d="M676.605 452.366L627.787 611.749L604.139 747.293H585.597L610.586 452.366H676.605Z" fill="#997659"/>
<path fill-rule="evenodd" clip-rule="evenodd" d="M694.07 452.366C690.754 539.876 694.656 585.015 695.398 592.965C696.14 600.915 706.302 652.468 730.359 749.962L710.601 743.186C672.581 653.77 659.625 607.298 655.264 595.556C650.904 583.815 639.322 536.084 620.52 452.366H694.07Z" fill="#B28B67"/>
<path fill-rule="evenodd" clip-rule="evenodd" d="M726.896 741.515C728.132 740.964 729.604 741.513 730.07 742.781C731.022 745.374 732.389 749.49 732.389 751.773C732.389 755.277 731.219 762 731.219 762C727.148 762 658.05 762 658.05 762C658.05 762 655.199 752.583 661.343 751.833C667.487 751.082 671.552 750.477 671.552 750.477L705.693 735.277C706.288 735.012 706.984 735.29 707.232 735.889L709.474 741.321C709.474 741.321 715.163 743.972 718.719 743.972C720.973 743.972 724.567 742.554 726.896 741.515Z" fill="#E4E4E4"/>
<path fill-rule="evenodd" clip-rule="evenodd" d="M604.952 741.515C606.188 740.964 607.66 741.513 608.126 742.781C609.077 745.374 610.444 749.49 610.444 751.773C610.444 755.277 609.275 762 609.275 762C605.204 762 536.106 762 536.106 762C536.106 762 533.254 752.583 539.399 751.833C545.543 751.082 549.609 750.477 549.609 750.477L583.749 735.277C584.344 735.012 585.04 735.29 585.288 735.889L587.53 741.321C587.53 741.321 593.218 743.972 596.775 743.972C599.029 743.972 602.622 742.554 604.952 741.515Z" fill="#E4E4E4"/>
<path fill-rule="evenodd" clip-rule="evenodd" d="M683.092 452.366L662.336 533.569H598.937L608.389 452.366H683.092Z" fill="#69A1AC"/>
<path fill-rule="evenodd" clip-rule="evenodd" d="M694.767 452.366C705.012 483.032 698.659 533.569 698.659 533.569H633.963L616.174 452.366H694.767Z" fill="#89C5CC"/>
<path fill-rule="evenodd" clip-rule="evenodd" d="M765.359 493.21C760.516 486.127 727.87 390.824 727.87 390.824L699.712 394.876C699.712 394.876 746.526 494.117 749.201 498.732C752.676 504.728 749.598 514.578 747.512 521.258C747.189 522.29 746.89 523.248 746.643 524.103C751.022 525.36 752.688 522.866 754.445 520.235C756.43 517.266 758.529 514.122 764.784 516.018C767.2 516.75 769.521 517.69 771.789 518.609C779.623 521.784 786.82 524.699 795.088 517.875C796.399 516.793 797.504 513.255 793.339 511.195C782.963 506.064 767.727 496.671 765.359 493.21ZM522.708 488.284L554.164 447.805L569.209 466.948L534.444 494.487C527.042 510.713 522.368 517.93 520.423 516.139C518.783 514.629 519.161 512.67 519.509 510.865C519.78 509.459 520.033 508.146 519.3 507.214C517.626 505.084 510.204 507.477 503.259 510.049C496.314 512.62 497.478 508.885 498.743 506.844C504.75 500.457 512.738 494.27 522.708 488.284Z" fill="#B28B67"/>
<path fill-rule="evenodd" clip-rule="evenodd" d="M630.812 323.337L619.419 322.996C610.584 387.088 526.464 441.716 524.186 465.531C523.35 474.266 530.064 477.681 527.27 480.697L543.215 489.203C545.263 486.017 551.222 490.485 561.622 485.319C572.022 480.153 641.102 396.319 630.812 323.337Z" fill="#DB2721"/>
<path fill-rule="evenodd" clip-rule="evenodd" d="M649.348 307.576C651.844 307.048 654.297 308.636 654.828 311.124L656.53 319.102C679.727 332.2 738.374 372.832 764.469 460.111C767.21 469.279 765.349 474.657 763.863 478.953C762.845 481.892 762.002 484.326 762.928 487.121L744.736 494.969C744.438 492.851 741.826 491.574 738.455 489.927C733.555 487.532 727.052 484.353 723.729 476.667C720.58 469.38 716.197 460.343 711.073 450.325C712.695 464.317 711.846 477.513 707.553 488.945C696.846 517.466 609.274 500.099 596.741 474.289C590.054 460.515 594.949 447.479 601.424 430.24C609.643 408.355 620.406 379.696 613.253 334.152L610.349 320.541C609.818 318.054 611.41 315.61 613.906 315.081L649.348 307.576Z" fill="#FF4133"/>
</svg>
