<svg width="906" height="641" viewBox="0 0 906 641" fill="none" xmlns="http://www.w3.org/2000/svg">
<path d="M600.7 637.602C611.46 637.602 621.923 637.122 632.09 636.162C700.73 629.832 755 602.772 791.09 564.992C810.181 545.301 824.618 521.584 833.34 495.582C841.555 470.966 843.951 444.78 840.34 419.082C815.4 241.942 605.94 328.082 693.75 220.342C781.56 112.602 609.66 -24.428 543.7 8.00201C477.74 40.432 550.48 109.792 387.48 77.002C224.48 44.212 258.21 188.282 258.21 188.282" stroke="#CCDDE2" stroke-width="4.82" stroke-miterlimit="10"/>
<path d="M161.85 484.721C161.85 484.721 87.2 431.191 58.38 490.391C58.38 490.391 88.69 382.971 192.07 344.551C192.07 344.551 221.62 328.111 222.92 338.041C224.22 347.971 232.79 353.041 236.54 352.921C240.29 352.801 271.95 354.781 273.05 350.051C274.15 345.321 272.05 331.151 287.75 331.051C303.45 330.951 388.64 351.881 413 374.001C413 374.001 370.6 425.191 393.27 481.631L374.17 477.001C374.17 477.001 385.95 579.001 369.89 638.331H92.49C92.49 638.331 120.22 641.821 148.66 621.531L189.96 568.531C189.96 568.531 208.07 541.091 245.07 537.171C245.07 537.171 266.13 534.871 265.93 524.861C265.73 514.851 273.52 531.271 283.93 516.801C285.2 516.801 310.5 518.261 310.5 518.261C310.5 518.261 329.5 520.041 333.07 503.081C336.64 486.121 349.8 367.081 345.07 359.931C340.34 352.781 338.53 352.691 298.61 352.931C258.69 353.171 223.61 345.211 218.53 365.071C213.45 384.931 207.58 460.181 207.58 460.181C207.58 460.181 185.08 466.071 167.94 490.441C168 490.431 161.85 502.311 161.85 484.721Z" fill="#2E2E2E"/>
<path d="M161.85 448.57V495.43" stroke="black" stroke-width="4.82" stroke-miterlimit="10"/>
<path d="M372.89 472.002C416.94 495.402 538.68 543.212 543 359.322C543 359.322 537.76 311.032 551.42 304.732C565.08 298.432 587.11 278.482 558.74 230.182L577.25 211.712C579.751 209.138 581.127 205.676 581.076 202.087C581.024 198.499 579.549 195.078 576.975 192.577C574.401 190.076 570.939 188.7 567.351 188.751C563.762 188.803 560.341 190.278 557.84 192.852L521.05 231.852C521.05 231.852 515.72 221.852 506.27 227.062C496.82 232.272 462.16 254.382 477.9 300.552L436.96 418.152" stroke="black" stroke-width="4.82" stroke-miterlimit="10"/>
<path d="M521 231.828C521 231.828 530.81 246.758 509.93 262.018" stroke="black" stroke-width="4.82" stroke-miterlimit="10"/>
<path d="M564.78 241.781C564.78 241.781 570.89 260.971 546.24 273.351C537.52 277.731 527.95 268.511 532.07 259.661C532.14 259.531 532.2 259.391 532.27 259.251" stroke="black" stroke-width="4.82" stroke-miterlimit="10"/>
<path d="M572.24 265.48C572.24 265.48 566.85 284.22 552.1 285.12C539.05 285.91 541.24 272.6 541.24 272.6" stroke="black" stroke-width="4.82" stroke-miterlimit="10"/>
<path d="M319.9 253.742C318.9 254.002 318.27 253.172 317.34 253.332C303.97 250.892 294.03 240.332 292.91 235.252C293.29 238.022 298.37 237.742 297.51 240.572C297.35 241.112 297.03 240.902 296.77 241.422C296.35 242.422 296.36 241.052 295.77 241.952C292.49 237.102 290.59 234.692 290.01 232.022C290.404 234.888 290.172 237.805 289.33 240.572C289.176 241.113 288.972 241.639 288.72 242.142C286.72 246.862 282.55 250.852 275.58 251.842C273.833 252.063 272.068 252.12 270.31 252.012C265.31 251.722 260.99 251.432 257.31 251.272C245.01 250.722 240.6 251.652 241.98 259.592C242.741 263.183 243.819 266.701 245.2 270.102C247.64 276.522 249.34 287.642 246.84 299.752V299.822C243.94 313.922 234.76 324.822 215.09 335.062C211.605 336.861 208.012 338.44 204.33 339.792C170.2 352.452 88.56 384.522 54.72 502.122C51.1202 514.652 48.4302 526.052 46.5302 536.462L45.6002 535.922C22.4902 522.072 7.4202 491.002 12.0002 464.272C14.2802 451.002 22.9202 441.742 34.0002 434.772C41.7802 429.952 50.1002 426.002 57.07 420.052C80.17 400.322 61.7 369.642 74.49 346.052C88.91 319.512 111.49 303.152 140.97 301.802C148.39 302.122 156.74 302.992 164.84 302.602C176.6 303.022 188.62 302.062 197.23 294.352C204.01 288.352 205.42 278.572 207.99 270.412C210.884 261.21 213.297 251.864 215.22 242.412C216.979 233.45 220.26 224.856 224.92 217.002C229.951 208.491 237.046 201.385 245.55 196.342C252.968 192.155 261.239 189.703 269.74 189.172C277.482 189.628 285.013 191.874 291.74 195.732C294.037 197.09 296.209 198.649 298.23 200.392C313.12 213.092 320.25 234.592 319.9 253.742Z" fill="#FFBF23"/>
<path d="M545.82 284C545.82 284 541.05 289.92 543.66 295.54C546.27 301.16 552.75 302.47 559.05 300.01" stroke="black" stroke-width="4.82" stroke-miterlimit="10"/>
<path d="M558.72 230.18L545.54 243.35" stroke="black" stroke-width="4.82" stroke-miterlimit="10"/>
<path d="M207.63 458.891L218.36 366.391C218.794 362.648 220.589 359.196 223.402 356.69C226.216 354.184 229.852 352.8 233.62 352.801H332.16C334.316 352.8 336.448 353.253 338.418 354.13C340.387 355.007 342.15 356.289 343.591 357.893C345.033 359.497 346.12 361.386 346.783 363.437C347.446 365.489 347.67 367.657 347.44 369.801L333.08 503.091C332.673 506.859 330.888 510.345 328.067 512.877C325.247 515.41 321.59 516.811 317.8 516.811H282.54" stroke="black" stroke-width="4.82" stroke-miterlimit="10"/>
<path d="M324.1 376.36C326.32 376.36 328.12 374.561 328.12 372.34C328.12 370.12 326.32 368.32 324.1 368.32C321.88 368.32 320.08 370.12 320.08 372.34C320.08 374.561 321.88 376.36 324.1 376.36Z" fill="black"/>
<path d="M257.74 480.352C268.14 482.692 270.22 482.732 280.31 484.232C286.67 485.182 301.21 485.972 301.47 476.102C301.71 467.432 291.98 462.342 285.11 459.572C277.181 456.556 268.884 454.616 260.44 453.802C256.96 453.402 253.463 453.128 249.95 452.982C225.6 451.982 197.51 457.872 180.74 476.922C141.89 521.002 90.23 549.342 90.23 549.342" stroke="black" stroke-width="4.82" stroke-miterlimit="10"/>
<path d="M285.59 484.719C290.59 486.839 299.06 491.359 295.59 500.019C294.01 504.019 291.14 505.439 287.2 506.019C278.69 507.249 269.56 505.439 261.2 503.689C258.11 503.039 252.63 501.849 249.58 501.009" stroke="black" stroke-width="4.82" stroke-miterlimit="10"/>
<path d="M276.7 506.219C276.7 506.219 285.79 506.109 283.6 514.559C279.99 528.559 251.94 522.219 238.82 519.279" stroke="black" stroke-width="4.82" stroke-miterlimit="10"/>
<path d="M277.26 331.809C320 333.679 385.13 346.209 444.19 397.299" stroke="black" stroke-width="4.82" stroke-miterlimit="10"/>
<path d="M600.7 637.609L92.49 638.369" stroke="black" stroke-width="4.82" stroke-miterlimit="10"/>
<path d="M372.89 452.879C372.89 452.879 382.89 545.949 372.89 637.609" stroke="black" stroke-width="4.82" stroke-miterlimit="10"/>
<path opacity="0.54" d="M814.21 410.37L902.1 185.16C903.19 180.802 903.272 176.254 902.34 171.86C901.409 167.466 899.489 163.342 896.725 159.801C893.961 156.261 890.427 153.396 886.391 151.426C882.354 149.455 877.922 148.431 873.43 148.43H524.28C516.441 148.429 508.829 151.067 502.672 155.92C496.515 160.772 492.171 167.557 490.34 175.18L394.1 400.34C393.055 404.685 393.01 409.211 393.966 413.577C394.923 417.943 396.858 422.035 399.624 425.546C402.39 429.056 405.917 431.894 409.938 433.845C413.959 435.796 418.371 436.81 422.84 436.81H780.34C788.126 436.81 795.688 434.209 801.825 429.418C807.962 424.627 812.321 417.923 814.21 410.37Z" fill="white"/>
<path d="M814.21 410.37L902.1 185.16C903.19 180.802 903.272 176.254 902.34 171.86C901.409 167.466 899.489 163.342 896.725 159.801C893.961 156.261 890.427 153.396 886.391 151.426C882.354 149.455 877.922 148.431 873.43 148.43H524.28C516.441 148.429 508.829 151.067 502.672 155.92C496.515 160.772 492.171 167.557 490.34 175.18L394.1 400.34C393.055 404.685 393.01 409.211 393.966 413.577C394.923 417.943 396.858 422.035 399.624 425.546C402.39 429.056 405.917 431.894 409.938 433.845C413.959 435.796 418.371 436.81 422.84 436.81H780.34C788.126 436.81 795.688 434.209 801.825 429.418C807.962 424.627 812.321 417.923 814.21 410.37Z" fill="#FFBF23"/>
<path d="M814.21 410.37L902.1 185.16C903.19 180.802 903.272 176.254 902.34 171.86C901.409 167.466 899.489 163.342 896.725 159.801C893.961 156.261 890.427 153.396 886.391 151.426C882.354 149.455 877.922 148.431 873.43 148.43H524.28C516.441 148.429 508.829 151.067 502.672 155.92C496.515 160.772 492.171 167.557 490.34 175.18L394.1 400.34C393.055 404.685 393.01 409.211 393.966 413.577C394.923 417.943 396.858 422.035 399.624 425.546C402.39 429.056 405.917 431.894 409.938 433.845C413.959 435.796 418.371 436.81 422.84 436.81H780.34C788.126 436.81 795.688 434.209 801.825 429.418C807.962 424.627 812.321 417.923 814.21 410.37Z" stroke="black" stroke-width="4.82" stroke-linecap="square" stroke-linejoin="round"/>
<path d="M801.35 401.252L882.44 193.482C883.444 189.463 883.519 185.268 882.66 181.216C881.801 177.163 880.03 173.36 877.482 170.094C874.933 166.829 871.674 164.186 867.952 162.368C864.23 160.55 860.142 159.604 856 159.602H533.87C526.637 159.6 519.615 162.034 513.934 166.511C508.254 170.989 504.247 177.248 502.56 184.282L413.77 392.002C412.807 396.011 412.765 400.186 413.649 404.214C414.532 408.241 416.317 412.016 418.87 415.254C421.423 418.492 424.677 421.11 428.387 422.909C432.097 424.708 436.167 425.642 440.29 425.642H770.11C777.29 425.638 784.264 423.237 789.924 418.818C795.583 414.399 799.605 408.217 801.35 401.252Z" fill="#FFBF23"/>
<path d="M557.11 197.8C561.38 191.39 568.37 188.54 572.72 191.43C577.07 194.32 577.13 201.87 572.86 208.28C572.197 209.265 571.448 210.189 570.62 211.04L602.27 277.86C607.27 274.49 612.87 273.66 616.85 276.31C619.42 278.02 620.85 280.93 621.3 284.31L642.92 277.01L661.83 270.69C663.83 270 665.94 269.34 668 268.69C668.777 266.368 669.856 264.159 671.21 262.12C677.21 253.12 687.02 249.12 693.12 253.12C699.22 257.12 699.3 267.59 693.47 276.54L729.47 325.77C737.32 319.33 746.57 317.34 752.98 321.6C761.7 327.4 761.83 342.54 753.27 355.41C752.93 355.92 752.54 356.34 752.18 356.83L776.18 389.62C776.25 389.72 776.34 389.84 776.4 389.94C777.007 390.855 777.427 391.881 777.637 392.959C777.848 394.036 777.843 395.145 777.625 396.221C777.407 397.298 776.979 398.32 776.365 399.231C775.752 400.142 774.965 400.923 774.05 401.53C773.135 402.136 772.109 402.557 771.031 402.767C769.953 402.977 768.844 402.973 767.768 402.755C766.692 402.537 765.669 402.109 764.758 401.495C763.848 400.882 763.067 400.095 762.46 399.18L741.15 367.03C734.41 370.94 727.25 371.69 722 368.19C713.66 362.65 713.26 348.61 720.69 336.19L686.18 284.12C681.09 287.58 675.47 288.46 671.44 285.79C669.189 284.202 667.655 281.791 667.17 279.08C666.31 279.31 665.46 279.56 664.6 279.8L645.37 285.05L620.76 291.68C620.006 294.63 618.762 297.432 617.08 299.97C611.08 308.97 601.28 312.97 595.17 308.92C589.06 304.87 588.97 294.26 594.96 285.25C595.853 283.943 596.857 282.715 597.96 281.58L567.83 213.45C564.2 215.92 560.19 216.56 557.32 214.65C552.91 211.77 552.84 204.22 557.11 197.8Z" fill="white"/>
<path d="M786.31 201.489H833C835.136 201.489 837.226 200.866 839.014 199.698C840.802 198.529 842.212 196.865 843.07 194.909C843.344 194.309 843.491 193.659 843.5 192.999C843.49 191.724 842.976 190.505 842.072 189.606C841.168 188.707 839.945 188.202 838.67 188.199H789C791.37 192.149 790.19 197.609 786.31 201.489Z" fill="#D7E8F0"/>
<path d="M756.12 196.699C756.123 197.971 756.63 199.189 757.53 200.087C758.429 200.985 759.649 201.489 760.92 201.489H786.31C790.19 197.609 791.37 192.149 789.04 188.199H766.62C764.486 188.198 762.398 188.818 760.61 189.982C758.822 191.147 757.411 192.807 756.55 194.759C756.278 195.371 756.132 196.03 756.12 196.699Z" fill="#FFBF23"/>
<path d="M767.8 201.489C767.932 201.746 768.086 201.99 768.26 202.219C771.59 206.769 778.81 207.219 784.43 203.099C785.095 202.609 785.723 202.071 786.31 201.489C790.19 197.609 791.37 192.149 789.04 188.199C788.908 187.946 788.754 187.705 788.58 187.479C785.28 182.899 778.06 182.479 772.44 186.569C771.766 187.067 771.128 187.612 770.53 188.199C766.68 192.089 765.5 197.519 767.8 201.489Z" fill="white"/>
<path d="M744.38 226.002C744.39 227.276 744.904 228.494 745.809 229.391C746.713 230.288 747.936 230.792 749.21 230.792H798.21C795.84 226.792 797.02 221.392 800.91 217.512H754.91C752.774 217.512 750.684 218.135 748.896 219.303C747.108 220.472 745.698 222.136 744.84 224.092C744.56 224.691 744.404 225.341 744.38 226.002Z" fill="#FFBF23"/>
<path d="M798.2 230.792H821.2C823.333 230.794 825.42 230.176 827.208 229.013C828.996 227.85 830.407 226.192 831.27 224.242C831.546 223.632 831.693 222.971 831.7 222.302C831.701 221.672 831.578 221.049 831.338 220.467C831.098 219.885 830.745 219.357 830.3 218.912C829.855 218.467 829.326 218.114 828.744 217.874C828.163 217.633 827.539 217.51 826.91 217.512H800.9C797 221.392 795.83 226.822 798.2 230.792Z" fill="#D7E8F0"/>
<path d="M798.2 230.791C798.303 231.053 798.445 231.299 798.62 231.521C801.93 236.101 809.15 236.521 814.76 232.431C815.44 231.937 816.079 231.389 816.67 230.791C820.52 226.911 821.67 221.481 819.4 217.511C819.272 217.254 819.121 217.01 818.95 216.781C815.61 212.231 808.39 211.781 802.78 215.901C802.111 216.386 801.482 216.924 800.9 217.511C797 221.391 795.83 226.821 798.2 230.791Z" fill="white"/>
<path d="M781.88 259.892H811.21C813.344 259.893 815.432 259.273 817.22 258.108C819.008 256.944 820.419 255.284 821.28 253.332C821.556 252.732 821.703 252.081 821.71 251.422C821.705 250.143 821.194 248.919 820.289 248.016C819.384 247.113 818.158 246.604 816.88 246.602H784.61C786.91 250.572 785.73 256.002 781.88 259.892Z" fill="#FFBF23"/>
<path d="M734.34 255.122C734.345 256.39 734.853 257.605 735.753 258.499C736.653 259.394 737.871 259.894 739.14 259.892H781.88C785.73 256.002 786.88 250.572 784.61 246.602H744.84C742.704 246.602 740.614 247.225 738.826 248.393C737.037 249.562 735.628 251.225 734.77 253.182C734.496 253.792 734.349 254.452 734.34 255.122Z" fill="#D7E8F0"/>
<path d="M763.37 259.89C763.502 260.143 763.656 260.384 763.83 260.61C767.13 265.19 774.35 265.61 779.97 261.52C780.644 261.022 781.282 260.477 781.88 259.89C785.73 256 786.88 250.57 784.61 246.6C784.478 246.343 784.324 246.099 784.15 245.87C780.82 241.32 773.6 240.93 767.98 244.99C767.315 245.48 766.687 246.018 766.1 246.6C762.22 250.48 761 255.94 763.37 259.89Z" fill="white"/>
<path d="M592.26 397.138H621.59C623.724 397.14 625.812 396.52 627.6 395.355C629.388 394.19 630.798 392.531 631.66 390.578C631.995 389.848 632.139 389.045 632.079 388.244C632.02 387.443 631.758 386.671 631.318 385.998C630.879 385.326 630.276 384.776 629.566 384.4C628.856 384.024 628.063 383.834 627.26 383.848H595C597.29 387.818 596.11 393.248 592.26 397.138Z" fill="#FFBF23"/>
<path d="M475.82 392.372C475.821 392.999 475.946 393.621 476.188 394.2C476.429 394.78 476.782 395.306 477.227 395.749C477.672 396.192 478.199 396.543 478.78 396.782C479.36 397.021 479.982 397.143 480.61 397.142H592.26C596.11 393.252 597.26 387.822 594.99 383.852H486.32C484.184 383.852 482.094 384.475 480.306 385.643C478.517 386.812 477.108 388.475 476.25 390.432C475.975 391.042 475.829 391.702 475.82 392.372Z" fill="#D7E8F0"/>
<path d="M573.75 397.14C573.882 397.393 574.036 397.634 574.21 397.86C577.51 402.45 584.73 402.86 590.35 398.77C591.024 398.272 591.662 397.727 592.26 397.14C596.11 393.25 597.26 387.82 594.99 383.85C594.859 383.593 594.705 383.349 594.53 383.12C591.19 378.57 583.97 378.18 578.36 382.24C577.695 382.73 577.067 383.268 576.48 383.85C572.6 387.73 571.42 393.19 573.75 397.14Z" fill="white"/>
<path d="M48.1998 541.18C44.4758 539.711 40.8745 537.949 37.4298 535.91C14.2998 522.06 -0.770197 491 3.8198 464.26C6.1098 450.99 14.7498 441.74 25.8698 434.76C33.6398 429.94 41.9998 426 48.9398 420.05C72.04 400.32 53.56 369.63 66.35 346.05C81.9 317.45 106.9 300.68 139.84 301.77C155.65 302.29 176.18 305.92 189.09 294.35C195.87 288.35 197.29 278.57 199.86 270.41C202.757 261.208 205.173 251.862 207.1 242.41C208.831 233.449 212.092 224.854 216.74 217C221.77 208.48 228.865 201.365 237.37 196.31C253.37 187.08 275.68 186.23 291.76 195.72C294.049 197.081 296.217 198.637 298.24 200.37C313.12 213.13 320.24 234.62 319.9 253.78" stroke="black" stroke-width="4.82" stroke-miterlimit="10"/>
<path d="M289.68 230.328C290.51 235.968 293.94 241.168 300.03 242.728C306.91 244.478 310.56 251.178 312.5 257.908C315.257 267.782 314.551 278.301 310.5 287.718C306.74 296.578 300.04 306.718 288.71 308.308C267.98 311.308 257.66 302.528 257.66 302.528" stroke="black" stroke-width="4.82" stroke-miterlimit="10"/>
<path d="M272.41 260.46C274.376 260.46 275.97 258.866 275.97 256.9C275.97 254.934 274.376 253.34 272.41 253.34C270.444 253.34 268.85 254.934 268.85 256.9C268.85 258.866 270.444 260.46 272.41 260.46Z" fill="black"/>
<path d="M303.72 258.1C305.686 258.1 307.28 256.507 307.28 254.54C307.28 252.574 305.686 250.98 303.72 250.98C301.754 250.98 300.16 252.574 300.16 254.54C300.16 256.507 301.754 258.1 303.72 258.1Z" fill="black"/>
<path d="M264.15 523.248C269.33 526.428 265.15 531.668 261.39 533.438C254.93 536.438 246.58 536.968 239.54 537.808C186.01 544.108 168.14 617.588 134.54 631.248C100.94 644.908 10.7698 654.888 54.75 502.108C88.61 384.528 170.25 352.458 204.38 339.798C208.054 338.448 211.64 336.871 215.12 335.078C234.79 324.858 244 313.918 246.89 299.808C246.89 299.808 246.89 299.808 246.89 299.748C249.39 287.638 247.71 276.518 245.26 270.088C243.855 266.692 242.764 263.174 242 259.578C240.18 249.348 248.08 250.788 270.26 252.008C280.44 252.608 286.2 248.008 288.68 242.148C288.923 241.64 289.121 241.111 289.27 240.568C290.313 237.25 290.438 233.711 289.63 230.328" stroke="black" stroke-width="4.82" stroke-miterlimit="10"/>
<path d="M287.75 257.762C287.75 257.762 291.49 271.432 291.11 273.452C290.73 275.472 285.94 273.912 285.94 273.912" stroke="black" stroke-width="4.82" stroke-miterlimit="10"/>
<path d="M285.17 286.43C278 290.29 269.71 287.86 266.47 281.43" stroke="black" stroke-width="4.82" stroke-miterlimit="10"/>
<path d="M278.127 271.446C284.805 265.141 285.231 254.746 279.078 248.228C272.925 241.71 262.523 241.537 255.844 247.842C249.166 254.147 248.74 264.542 254.893 271.06C261.046 277.578 271.448 277.751 278.127 271.446Z" stroke="black" stroke-width="4.82" stroke-miterlimit="10"/>
<path d="M319.657 267.657C326.336 261.352 326.762 250.957 320.609 244.439C314.456 237.921 304.054 237.748 297.375 244.053C290.696 250.358 290.27 260.753 296.423 267.271C302.576 273.789 312.979 273.962 319.657 267.657Z" stroke="black" stroke-width="4.82" stroke-miterlimit="10"/>
<path d="M308.86 244.45C311.67 244.432 314.381 245.49 316.436 247.407C318.491 249.324 319.734 251.955 319.91 254.76C320.089 257.815 319.076 260.819 317.084 263.142C315.092 265.464 312.276 266.923 309.23 267.21C308.88 267.21 308.52 267.21 308.17 267.21C305.376 267.23 302.679 266.186 300.626 264.29C298.574 262.393 297.321 259.787 297.12 257C296.927 253.937 297.934 250.92 299.928 248.587C301.921 246.253 304.745 244.788 307.8 244.5C308.15 244.5 308.51 244.5 308.86 244.5V244.45ZM308.86 242.09C308.44 242.09 308.01 242.09 307.58 242.15C303.91 242.499 300.519 244.256 298.119 247.054C295.719 249.851 294.497 253.47 294.71 257.15C294.934 260.562 296.451 263.761 298.952 266.093C301.454 268.425 304.75 269.715 308.17 269.7C308.59 269.7 309.02 269.7 309.45 269.64C313.121 269.297 316.514 267.54 318.913 264.741C321.313 261.942 322.531 258.32 322.31 254.64C322.11 251.213 320.605 247.992 318.103 245.641C315.601 243.29 312.293 241.987 308.86 242V242.09Z" fill="white"/>
<path d="M283.39 258.159L292.11 257.359" stroke="black" stroke-width="4.82" stroke-miterlimit="10"/>
<path d="M267.34 247.921C270.235 247.893 273.031 248.978 275.149 250.953C277.267 252.927 278.546 255.64 278.72 258.531C278.907 261.678 277.865 264.775 275.813 267.169C273.761 269.563 270.859 271.066 267.72 271.361C267.36 271.361 266.99 271.361 266.63 271.361C263.732 271.387 260.935 270.3 258.816 268.323C256.697 266.347 255.417 263.633 255.24 260.741C255.055 257.595 256.098 254.501 258.15 252.109C260.202 249.718 263.103 248.216 266.24 247.921C266.605 247.884 266.973 247.868 267.34 247.871V247.921ZM267.34 245.461C266.9 245.461 266.46 245.481 266.02 245.521C262.238 245.872 258.743 247.688 256.281 250.58C253.818 253.472 252.584 257.211 252.84 261.001C253.069 264.497 254.623 267.775 257.186 270.164C259.748 272.554 263.126 273.876 266.63 273.861C267.06 273.861 267.5 273.861 267.94 273.801C271.704 273.447 275.184 271.644 277.643 268.772C280.103 265.9 281.349 262.185 281.12 258.411C280.893 254.915 279.341 251.638 276.78 249.248C274.219 246.858 270.843 245.536 267.34 245.551V245.461Z" fill="white"/>
<path d="M318.079 265.982C323.805 260.576 324.167 251.658 318.886 246.064C313.605 240.469 304.681 240.317 298.954 245.723C293.227 251.129 292.866 260.047 298.147 265.641C303.428 271.236 312.352 271.388 318.079 265.982Z" fill="#FFBF23"/>
<path d="M279.55 270.358C285.327 264.897 285.689 255.898 280.358 250.258C275.026 244.617 266.021 244.472 260.244 249.933C254.466 255.393 254.105 264.393 259.436 270.033C264.767 275.673 273.772 275.819 279.55 270.358Z" fill="#FFBF23"/>
<path d="M231.73 352.919C227.33 348.329 223.51 341.579 221 331.809" stroke="black" stroke-width="4.82" stroke-miterlimit="10"/>
<path d="M272.41 352.801L277.26 331.811L282.53 309.191" stroke="black" stroke-width="4.82" stroke-miterlimit="10"/>
<path d="M292.235 436.377C294.099 427.231 289.056 418.481 280.971 416.833C272.886 415.185 264.821 421.264 262.957 430.409C261.093 439.555 266.136 448.305 274.221 449.952C282.306 451.6 290.371 445.522 292.235 436.377Z" fill="#D7E8F0"/>
<path d="M601.57 585.18L593.37 631C593.14 632.286 592.465 633.451 591.463 634.29C590.462 635.129 589.197 635.589 587.89 635.59H545C543.68 635.591 542.402 635.123 541.394 634.269C540.387 633.416 539.716 632.232 539.5 630.93L532 585.18H601.57Z" stroke="#CCDDE2" stroke-width="4.82" stroke-miterlimit="10"/>
<path d="M609.37 580.058C609.255 581.452 608.62 582.751 607.592 583.699C606.565 584.648 605.218 585.175 603.82 585.178H529.82C528.44 585.178 527.11 584.667 526.085 583.744C525.06 582.82 524.413 581.55 524.27 580.178C524.196 579.405 524.285 578.625 524.53 577.888C524.775 577.151 525.172 576.474 525.695 575.9C526.217 575.325 526.854 574.866 527.565 574.553C528.275 574.239 529.043 574.077 529.82 574.078H603.82C604.585 574.079 605.343 574.237 606.044 574.544C606.746 574.85 607.377 575.298 607.898 575.859C608.418 576.42 608.818 577.083 609.071 577.805C609.325 578.528 609.426 579.295 609.37 580.058Z" stroke="#CCDDE2" stroke-width="4.82" stroke-miterlimit="10"/>
<path d="M569.15 574.001C569.15 571.651 575.15 542.381 570.15 516.431C567.43 502.191 561.43 488.961 549.35 481.711" stroke="#CCDDE2" stroke-width="4.82" stroke-miterlimit="10"/>
<path d="M570.17 516.471C570.17 516.471 571.54 496.751 588.58 495.391" stroke="#CCDDE2" stroke-width="4.82" stroke-miterlimit="10"/>
<path d="M572 546.561C576.848 543.165 582.687 541.476 588.6 541.761" stroke="#CCDDE2" stroke-width="4.82" stroke-miterlimit="10"/>
<path d="M572 532.55C572 532.55 559.62 517.89 539.84 529.49" stroke="#CCDDE2" stroke-width="4.82" stroke-miterlimit="10"/>
<path d="M563.27 526.649C563.27 526.649 535.39 501.189 529.93 535.649C529.93 535.649 537.78 540.759 549.37 535.649C560.96 530.539 563.27 526.649 563.27 526.649Z" stroke="#CCDDE2" stroke-width="4.82" stroke-miterlimit="10"/>
<path d="M576.3 501.391C576.3 501.391 575.3 489.931 588.58 486.181C601.86 482.431 609.39 498.121 609.39 498.121C609.39 498.121 599.14 509.451 576.3 501.391Z" stroke="#CCDDE2" stroke-width="4.82" stroke-miterlimit="10"/>
<path d="M579.38 541.751C579.38 541.751 578.92 530.161 594.38 532.551C609.84 534.941 612.38 548.131 612.38 548.131C612.38 548.131 587.06 557.411 579.38 542.971" stroke="#CCDDE2" stroke-width="4.82" stroke-miterlimit="10"/>
<path d="M560.75 492.471C560.75 493.291 549.13 491.471 548.39 491.211C542.76 489.531 538.76 485.631 536.13 480.471C535.32 478.871 530.63 469.901 531.96 468.341C532 468.341 559.62 459.441 560.75 492.471Z" stroke="#CCDDE2" stroke-width="4.82" stroke-miterlimit="10"/>
<path d="M833.36 495.578C824.639 521.584 810.202 545.305 791.11 564.998C755 602.778 700.73 629.838 632.11 636.168V495.578H833.36Z" stroke="#CCDDE2" stroke-width="4.82" stroke-miterlimit="10"/>
<path d="M791.11 565C755 602.78 700.73 629.84 632.11 636.17V565H791.11Z" stroke="#CCDDE2" stroke-width="4.82" stroke-miterlimit="10"/>
<path d="M770.22 531.674C770.22 526.066 765.674 521.52 760.065 521.52C754.457 521.52 749.91 526.066 749.91 531.674C749.91 537.283 754.457 541.83 760.065 541.83C765.674 541.83 770.22 537.283 770.22 531.674Z" stroke="#CCDDE2" stroke-width="4.82" stroke-miterlimit="10"/>
</svg>
